<svg width="217" height="141" viewBox="0 0 217 141" fill="none" xmlns="http://www.w3.org/2000/svg">
<path d="M13.1548 42V4.18182L36.6065 4.18182V9.09375H18.8608V20.6165H34.9261V25.5099H18.8608V42H13.1548ZM43.6236 42V4.18182H49.3295V37.0881H66.4659V42H43.6236ZM78.6811 4.18182V42H72.9751V4.18182H78.6811ZM118.401 16.4801H112.64C112.418 15.2491 112.006 14.1657 111.403 13.2301C110.799 12.2945 110.061 11.5005 109.187 10.848C108.313 10.1955 107.334 9.70312 106.251 9.37074C105.18 9.03835 104.041 8.87216 102.835 8.87216C100.656 8.87216 98.7043 9.41998 96.9808 10.5156C95.2696 11.6113 93.9155 13.2178 92.9183 15.3352C91.9335 17.4527 91.4411 20.0379 91.4411 23.0909C91.4411 26.1686 91.9335 28.7661 92.9183 30.8835C93.9155 33.0009 95.2758 34.6013 96.9993 35.6847C98.7228 36.768 100.662 37.3097 102.816 37.3097C104.01 37.3097 105.143 37.1496 106.214 36.8295C107.297 36.4972 108.276 36.0109 109.15 35.3707C110.024 34.7306 110.763 33.9489 111.366 33.0256C111.981 32.09 112.406 31.0189 112.64 29.8125L118.401 29.831C118.094 31.6899 117.496 33.401 116.61 34.9645C115.736 36.5156 114.61 37.8575 113.231 38.9901C111.864 40.1103 110.301 40.9782 108.54 41.5938C106.78 42.2093 104.86 42.517 102.779 42.517C99.5045 42.517 96.5869 41.7415 94.0263 40.1903C91.4657 38.6269 89.4467 36.3925 87.9695 33.4872C86.5045 30.5819 85.772 27.1165 85.772 23.0909C85.772 19.053 86.5107 15.5876 87.9879 12.6946C89.4652 9.7893 91.4841 7.56108 94.0447 6.00994C96.6054 4.44649 99.5168 3.66477 102.779 3.66477C104.786 3.66477 106.657 3.95407 108.393 4.53267C110.141 5.09896 111.71 5.93608 113.102 7.04403C114.493 8.13968 115.644 9.48153 116.555 11.0696C117.466 12.6454 118.081 14.4489 118.401 16.4801ZM125.229 42V4.18182L130.935 4.18182V22.2415H131.397L147.259 4.18182H154.442L139.189 21.2074L154.498 42L147.628 42L135.404 25.1037L130.935 30.2372V42H125.229ZM184.085 42.5355C181.549 42.5355 179.363 42.0739 177.529 41.1506C175.707 40.2273 174.304 38.9716 173.319 37.3835C172.334 35.7831 171.842 33.9735 171.842 31.9545C171.842 30.4157 172.162 29.0492 172.802 27.8551C173.442 26.6487 174.335 25.5346 175.479 24.5128C176.624 23.491 177.948 22.4631 179.45 21.429L185.543 17.1264C186.577 16.4493 187.384 15.7353 187.962 14.9844C188.541 14.2211 188.83 13.2794 188.83 12.1591C188.83 11.2727 188.449 10.4233 187.685 9.6108C186.922 8.7983 185.9 8.39205 184.62 8.39205C183.734 8.39205 182.952 8.60748 182.275 9.03835C181.61 9.46922 181.087 10.0232 180.705 10.7003C180.336 11.3651 180.151 12.0668 180.151 12.8054C180.151 13.6671 180.385 14.535 180.853 15.4091C181.333 16.2831 181.949 17.188 182.7 18.1236C183.451 19.0469 184.238 20.0071 185.063 21.0043L202.624 42H196.383L181.85 24.919C180.631 23.4787 179.499 22.1245 178.452 20.8565C177.406 19.5762 176.557 18.2836 175.904 16.9787C175.264 15.6615 174.944 14.2396 174.944 12.7131C174.944 10.9773 175.338 9.43845 176.126 8.09659C176.926 6.74242 178.04 5.68371 179.468 4.92045C180.896 4.1572 182.57 3.77557 184.491 3.77557C186.436 3.77557 188.104 4.1572 189.495 4.92045C190.898 5.6714 191.976 6.67472 192.727 7.9304C193.49 9.17377 193.871 10.5341 193.871 12.0114C193.871 13.8087 193.422 15.3968 192.523 16.7756C191.637 18.142 190.412 19.3977 188.849 20.5426L181.259 26.1378C179.782 27.2211 178.754 28.2921 178.175 29.3509C177.609 30.3973 177.326 31.2159 177.326 31.8068C177.326 32.8902 177.603 33.8935 178.157 34.8168C178.723 35.7401 179.511 36.4787 180.521 37.0327C181.542 37.5866 182.737 37.8636 184.103 37.8636C185.506 37.8636 186.873 37.562 188.202 36.9588C189.544 36.3433 190.757 35.4631 191.84 34.3182C192.936 33.1733 193.804 31.8007 194.444 30.2003C195.084 28.5999 195.404 26.8087 195.404 24.8267H200.39C200.39 27.2642 200.113 29.3262 199.559 31.0128C199.005 32.687 198.334 34.0535 197.546 35.1122C196.771 36.1586 196.038 36.9773 195.349 37.5682C195.127 37.7652 194.918 37.9621 194.721 38.1591C194.524 38.3561 194.315 38.553 194.093 38.75C192.813 40.0426 191.262 40.9967 189.44 41.6122C187.63 42.2277 185.845 42.5355 184.085 42.5355Z" fill="white"/>
<rect x="9" y="50" width="200" height="85" fill="black"/>
<path d="M19.0078 122V63.8182H59.9169V76.5455H34.8033V86.5455H57.4169V99.2727H34.8033V122H19.0078ZM81.522 63.8182V122H65.7266V63.8182H81.522ZM139.349 63.8182V122H126.167L105.144 91.4318H104.803V122H89.0078V63.8182H102.417L123.099 94.2727H123.553V63.8182H139.349ZM169.207 122H146.82V63.8182H168.979C174.964 63.8182 180.135 64.983 184.491 67.3125C188.866 69.6231 192.237 72.9564 194.604 77.3125C196.991 81.6496 198.184 86.8485 198.184 92.9091C198.184 98.9697 197 104.178 194.633 108.534C192.265 112.871 188.913 116.205 184.576 118.534C180.239 120.845 175.116 122 169.207 122ZM162.616 108.591H168.638C171.517 108.591 173.97 108.127 175.996 107.199C178.042 106.271 179.595 104.67 180.656 102.398C181.735 100.125 182.275 96.9621 182.275 92.9091C182.275 88.8561 181.726 85.6932 180.627 83.4205C179.548 81.1477 177.957 79.5473 175.854 78.6193C173.771 77.6913 171.214 77.2273 168.184 77.2273H162.616V108.591Z" fill="white"/>
</svg>
