<svg width="274" height="141" viewBox="0 0 274 141" fill="none" xmlns="http://www.w3.org/2000/svg">
<g clip-path="url(#clip0_109_208)">
<rect width="181.989" height="107.817" transform="matrix(0.962255 0.272148 -0.30533 0.952247 57.6587 0.952637)" fill="#D9D9D9"/>
<rect width="181.989" height="93.4213" transform="matrix(-0.962255 -0.272148 0.30533 -0.952247 204.99 139.649)" fill="black"/>
<rect width="12.2345" height="11.4256" transform="matrix(-0.962255 -0.272148 0.30533 -0.952247 135.79 115.191)" fill="#D9D9D9"/>
<rect width="12.2345" height="11.4256" transform="matrix(-0.962255 -0.272148 0.30533 -0.952247 206.426 135.169)" fill="#D9D9D9"/>
<rect width="12.2345" height="11.4256" transform="matrix(-0.962255 -0.272148 0.30533 -0.952247 66.6247 95.6299)" fill="#D9D9D9"/>
<rect width="12.2345" height="11.4256" transform="matrix(-0.962255 -0.272148 0.30533 -0.952247 43.0792 88.9707)" fill="#D9D9D9"/>
<rect width="12.2345" height="11.4256" transform="matrix(-0.962255 -0.272148 0.30533 -0.952247 228.589 66.0488)" fill="#D9D9D9"/>
<rect width="12.2345" height="11.4256" transform="matrix(-0.962255 -0.272148 0.30533 -0.952247 65.242 19.8506)" fill="#D9D9D9"/>
<rect width="12.2345" height="11.4256" transform="matrix(-0.962255 -0.272148 0.30533 -0.952247 90.1702 102.29)" fill="#D9D9D9"/>
<rect width="12.2345" height="11.4256" transform="matrix(-0.962255 -0.272148 0.30533 -0.952247 159.335 121.851)" fill="#D9D9D9"/>
<rect width="12.2345" height="11.4256" transform="matrix(-0.962255 -0.272148 0.30533 -0.952247 182.881 128.51)" fill="#D9D9D9"/>
<rect width="12.2345" height="11.4256" transform="matrix(-0.962255 -0.272148 0.30533 -0.952247 113.716 108.949)" fill="#D9D9D9"/>
<rect width="12.2345" height="11.4256" transform="matrix(-0.962255 -0.272148 0.30533 -0.952247 205.043 59.3896)" fill="#D9D9D9"/>
<rect width="12.2345" height="11.4256" transform="matrix(-0.962255 -0.272148 0.30533 -0.952247 157.952 46.0713)" fill="#D9D9D9"/>
<rect width="12.2345" height="11.4256" transform="matrix(-0.962255 -0.272148 0.30533 -0.952247 135.879 39.8281)" fill="#D9D9D9"/>
<rect width="12.2345" height="11.4256" transform="matrix(-0.962255 -0.272148 0.30533 -0.952247 112.333 33.1689)" fill="#D9D9D9"/>
<rect width="12.2345" height="11.4256" transform="matrix(-0.962255 -0.272148 0.30533 -0.952247 88.7875 26.5093)" fill="#D9D9D9"/>
<rect width="12.2345" height="11.4256" transform="matrix(-0.962255 -0.272148 0.30533 -0.952247 181.498 52.7305)" fill="#D9D9D9"/>
<g filter="url(#filter0_d_109_208)">
<rect width="48.9382" height="36.2932" rx="7.64659" transform="matrix(-0.962255 -0.272148 0.30533 -0.952247 243.246 120.453)" fill="#D9D9D9"/>
</g>
<rect width="48.9382" height="36.2932" rx="7.64659" transform="matrix(-0.962255 -0.272148 0.30533 -0.952247 118.16 85.0762)" fill="#D9D9D9"/>
<rect width="48.9382" height="36.2932" rx="7.64659" transform="matrix(-0.962255 -0.272148 0.30533 -0.952247 55.6174 67.3872)" fill="#D9D9D9"/>
<rect width="48.9382" height="36.2932" rx="7.64659" transform="matrix(-0.962255 -0.272148 0.30533 -0.952247 180.703 102.765)" fill="#D9D9D9"/>
</g>
<mask id="path-23-outside-1_109_208" maskUnits="userSpaceOnUse" x="39" y="58" width="234" height="49" fill="black">
<rect fill="white" x="39" y="58" width="234" height="49"/>
<path d="M63.7368 90.3682C63.9484 90.3682 64.1388 90.3153 64.3081 90.2095V87.3213C65.7469 86.348 67.757 85.5545 70.3384 84.9409C72.9409 84.3273 75.4694 84.0205 77.9238 84.0205C79.0452 85.1631 79.9762 86.877 80.7168 89.1621C81.4785 91.4261 81.8805 93.4785 81.9229 95.3193C81.4997 96.1657 80.7803 97.0755 79.7646 98.0488C78.7702 99.0221 77.5641 99.9214 76.1465 100.747C72.6341 102.82 68.6034 103.857 64.0542 103.857C57.5373 103.857 52.4062 101.963 48.6611 98.1758C44.7891 94.346 42.853 89.0457 42.853 82.2749C42.853 75.4829 44.9689 70.1509 49.2007 66.2788C51.0627 64.5438 53.2314 63.2425 55.707 62.375C58.1826 61.4863 60.7852 61.042 63.5146 61.042C68.8467 61.042 73.216 62.3327 76.6226 64.9141C80.0291 67.4954 81.7324 70.6799 81.7324 74.4673C81.7324 77.3237 80.8543 79.4396 79.0981 80.8149C77.342 82.1691 74.9616 82.8462 71.957 82.8462C70.3066 82.8462 68.6457 82.4442 66.9741 81.6401C65.3026 80.8149 64.3081 80.0426 63.9907 79.3232C63.9907 77.5882 64.0225 76.2235 64.0859 75.229C64.0436 75.2078 63.9696 75.1973 63.8638 75.1973H63.6416C63.3242 75.1973 63.0703 75.2925 62.8799 75.4829C62.7106 75.6522 62.5519 76.0225 62.4038 76.5938C62.2769 77.165 62.2134 78.7202 62.2134 81.2593C62.2134 87.3319 62.7212 90.3682 63.7368 90.3682ZM102.267 67.8022V100.588C101.294 101.434 99.9925 102.143 98.3633 102.714C96.734 103.286 94.7557 103.571 92.4282 103.571C90.1007 103.571 88.1224 103.053 86.4932 102.016C84.6523 100.895 83.7319 99.3078 83.7319 97.2554V64.4697C84.7052 63.6234 86.0065 62.9146 87.6357 62.3433C89.265 61.772 91.2327 61.4863 93.5391 61.4863C95.8454 61.4863 97.8449 61.9941 99.5376 63.0098C101.357 64.1735 102.267 65.771 102.267 67.8022ZM104.616 97.1284V65.3267C104.616 64.2264 105.494 63.3166 107.25 62.5972C109.027 61.8566 111.111 61.4863 113.502 61.4863C114.857 61.4863 116.126 61.6556 117.311 61.9941C118.517 62.3115 119.438 62.7241 120.072 63.2319C120.94 64.3322 121.733 65.4536 122.453 66.5962C123.172 67.7388 124.791 70.4048 127.309 74.5942C127.541 74.5942 127.753 74.5202 127.943 74.3721C128.134 74.224 128.229 74.0018 128.229 73.7056C128.229 73.3882 127.965 72.7852 127.436 71.8965L124.008 65.9932V64.2476C125.087 63.3589 126.399 62.6712 127.943 62.1846C129.488 61.6979 131.085 61.4546 132.736 61.4546C135.423 61.4546 137.592 61.9412 139.242 62.9146C141.168 64.0783 142.13 65.8979 142.13 68.3735V98.4297C142.13 100.249 141.263 101.572 139.528 102.397C138.047 103.138 136.068 103.508 133.593 103.508C132.217 103.508 130.874 103.36 129.562 103.063C128.271 102.767 127.256 102.386 126.515 101.921C125.013 99.9954 123.521 97.8372 122.04 95.4463L118.803 90.0508C118.189 90.1354 117.882 90.4634 117.882 91.0347C117.882 91.3944 118.189 92.082 118.803 93.0977L122.77 99.5088V101.191C120.316 102.778 117.544 103.571 114.455 103.571C111.387 103.571 108.974 103.011 107.218 101.889C105.483 100.768 104.616 99.1808 104.616 97.1284ZM158.761 62.0576H177.074C177.688 63.0732 178.143 64.1841 178.439 65.3901C178.735 66.575 178.883 67.6436 178.883 68.5957C178.883 70.7327 178.46 72.3408 177.614 73.4199C176.789 74.499 175.625 75.0386 174.123 75.0386H161.332C160.549 75.0386 160.158 75.3454 160.158 75.959V76.2129C160.158 76.3398 160.179 76.4245 160.221 76.4668H175.392C175.773 77.1227 176.101 77.9479 176.376 78.9424C176.63 80.0215 176.757 80.9842 176.757 81.8306C176.757 84.3485 176.291 86.3162 175.36 87.7339H168.473C165.257 87.7339 163.078 87.8608 161.935 88.1147C160.792 88.3475 160.084 88.5485 159.809 88.7178C159.534 88.9082 159.396 89.1515 159.396 89.4478C159.396 89.744 159.544 89.9767 159.84 90.146C160.941 89.7863 162.094 89.5324 163.3 89.3843C164.887 89.2362 166.611 89.1621 168.473 89.1621H177.392C178.682 90.9818 179.328 93.1717 179.328 95.7319C179.328 97.1707 179.148 98.5461 178.788 99.8579C178.428 101.17 177.889 102.228 177.169 103.032H153.397C150.774 103.032 148.668 102.397 147.082 101.127C145.347 99.7733 144.479 97.7843 144.479 95.1606V64.9775C144.479 63.9619 145.643 63.2214 147.97 62.7559C150.298 62.2904 153.895 62.0576 158.761 62.0576ZM215.954 103.571C213.055 103.571 210.78 103.095 209.13 102.143C207.353 101.149 206.39 99.7415 206.242 97.9219L205.956 94.9385C207.903 94.473 209.542 93.2669 210.875 91.3203C211.235 90.7702 211.415 90.2941 211.415 89.8921C211.415 89.342 211.14 89.0669 210.59 89.0669H210.495C210.473 89.0881 210.431 89.0986 210.368 89.0986C208.887 92.209 206.485 93.7642 203.163 93.7642C201.47 93.7642 200.021 93.3939 198.815 92.6533C197.63 91.9128 196.54 90.6326 195.546 88.813H195.355C194.784 88.813 194.499 89.0563 194.499 89.543C194.499 89.8815 194.625 90.2624 194.879 90.6855C195.726 92.1032 196.784 93.214 198.053 94.0181C199.048 94.6951 200.095 95.0972 201.195 95.2241L200.941 101.223C199.672 102.048 198.328 102.64 196.911 103C195.514 103.381 193.515 103.571 190.912 103.571C188.331 103.571 186.024 103.063 183.993 102.048C181.496 100.799 180.248 99.0645 180.248 96.8428C180.248 94.071 180.798 87.2261 181.898 76.3081C182.491 70.6164 182.967 66.6385 183.327 64.3745C185.506 62.4279 188.722 61.4546 192.975 61.4546C196.064 61.4546 198.625 62.0259 200.656 63.1685L202.401 69.0083L201.291 73.6738C201.206 73.9912 201.164 74.298 201.164 74.5942C201.164 75.3348 201.587 75.7157 202.433 75.7368L205.448 63.2002C206.316 62.7347 207.448 62.3327 208.844 61.9941C210.241 61.6344 211.764 61.4546 213.415 61.4546C216.504 61.4546 218.789 61.9836 220.27 63.0415C221.772 64.0783 222.661 65.8345 222.936 68.3101C223 68.7756 223.095 69.5479 223.222 70.627C225.147 87.1732 226.11 96.9168 226.11 99.8579C223.761 102.333 220.376 103.571 215.954 103.571ZM247.724 82.1479C247.893 82.3172 248.157 82.4019 248.517 82.4019C248.877 82.4019 249.184 82.3278 249.438 82.1797C248.887 78.9635 248.517 77.0592 248.327 76.4668C248.094 75.8532 247.745 75.5464 247.279 75.5464C247.068 75.5464 246.814 75.6099 246.518 75.7368L247.724 82.1479ZM241.439 91.6694C241.228 91.9657 241.122 92.2407 241.122 92.4946C241.122 93.1082 241.693 93.6266 242.836 94.0498C244 94.4518 245.407 94.7057 247.057 94.8115C247.332 97.8584 247.628 99.5934 247.946 100.017C247.544 100.799 246.433 101.593 244.613 102.397C242.794 103.18 240.741 103.571 238.456 103.571C235.43 103.571 232.838 102.926 230.68 101.635C228.522 100.323 227.443 98.6413 227.443 96.5889C227.443 96.0387 227.496 95.5521 227.602 95.1289L234.362 64.9141C236.055 63.835 238.075 62.9886 240.424 62.375C242.772 61.7614 245.216 61.4546 247.755 61.4546C251.395 61.4546 254.505 62.0682 257.086 63.2954C260.028 64.6919 261.815 66.7126 262.45 69.3574L269.687 99.2866C267.486 102.143 263.9 103.571 258.927 103.571C256.515 103.571 254.473 103.138 252.802 102.27C251.13 101.403 250.157 100.165 249.882 98.5566L249.184 94.6846C250.453 94.6634 251.68 94.4201 252.865 93.9546C254.05 93.4891 254.643 93.0024 254.643 92.4946C254.643 92.1561 254.505 91.881 254.23 91.6694C253.426 92.2407 252.442 92.6745 251.278 92.9707C250.115 93.2669 249.035 93.415 248.041 93.415C245.185 93.415 242.984 92.8332 241.439 91.6694Z"/>
</mask>
<path d="M63.7368 90.3682C63.9484 90.3682 64.1388 90.3153 64.3081 90.2095V87.3213C65.7469 86.348 67.757 85.5545 70.3384 84.9409C72.9409 84.3273 75.4694 84.0205 77.9238 84.0205C79.0452 85.1631 79.9762 86.877 80.7168 89.1621C81.4785 91.4261 81.8805 93.4785 81.9229 95.3193C81.4997 96.1657 80.7803 97.0755 79.7646 98.0488C78.7702 99.0221 77.5641 99.9214 76.1465 100.747C72.6341 102.82 68.6034 103.857 64.0542 103.857C57.5373 103.857 52.4062 101.963 48.6611 98.1758C44.7891 94.346 42.853 89.0457 42.853 82.2749C42.853 75.4829 44.9689 70.1509 49.2007 66.2788C51.0627 64.5438 53.2314 63.2425 55.707 62.375C58.1826 61.4863 60.7852 61.042 63.5146 61.042C68.8467 61.042 73.216 62.3327 76.6226 64.9141C80.0291 67.4954 81.7324 70.6799 81.7324 74.4673C81.7324 77.3237 80.8543 79.4396 79.0981 80.8149C77.342 82.1691 74.9616 82.8462 71.957 82.8462C70.3066 82.8462 68.6457 82.4442 66.9741 81.6401C65.3026 80.8149 64.3081 80.0426 63.9907 79.3232C63.9907 77.5882 64.0225 76.2235 64.0859 75.229C64.0436 75.2078 63.9696 75.1973 63.8638 75.1973H63.6416C63.3242 75.1973 63.0703 75.2925 62.8799 75.4829C62.7106 75.6522 62.5519 76.0225 62.4038 76.5938C62.2769 77.165 62.2134 78.7202 62.2134 81.2593C62.2134 87.3319 62.7212 90.3682 63.7368 90.3682ZM102.267 67.8022V100.588C101.294 101.434 99.9925 102.143 98.3633 102.714C96.734 103.286 94.7557 103.571 92.4282 103.571C90.1007 103.571 88.1224 103.053 86.4932 102.016C84.6523 100.895 83.7319 99.3078 83.7319 97.2554V64.4697C84.7052 63.6234 86.0065 62.9146 87.6357 62.3433C89.265 61.772 91.2327 61.4863 93.5391 61.4863C95.8454 61.4863 97.8449 61.9941 99.5376 63.0098C101.357 64.1735 102.267 65.771 102.267 67.8022ZM104.616 97.1284V65.3267C104.616 64.2264 105.494 63.3166 107.25 62.5972C109.027 61.8566 111.111 61.4863 113.502 61.4863C114.857 61.4863 116.126 61.6556 117.311 61.9941C118.517 62.3115 119.438 62.7241 120.072 63.2319C120.94 64.3322 121.733 65.4536 122.453 66.5962C123.172 67.7388 124.791 70.4048 127.309 74.5942C127.541 74.5942 127.753 74.5202 127.943 74.3721C128.134 74.224 128.229 74.0018 128.229 73.7056C128.229 73.3882 127.965 72.7852 127.436 71.8965L124.008 65.9932V64.2476C125.087 63.3589 126.399 62.6712 127.943 62.1846C129.488 61.6979 131.085 61.4546 132.736 61.4546C135.423 61.4546 137.592 61.9412 139.242 62.9146C141.168 64.0783 142.13 65.8979 142.13 68.3735V98.4297C142.13 100.249 141.263 101.572 139.528 102.397C138.047 103.138 136.068 103.508 133.593 103.508C132.217 103.508 130.874 103.36 129.562 103.063C128.271 102.767 127.256 102.386 126.515 101.921C125.013 99.9954 123.521 97.8372 122.04 95.4463L118.803 90.0508C118.189 90.1354 117.882 90.4634 117.882 91.0347C117.882 91.3944 118.189 92.082 118.803 93.0977L122.77 99.5088V101.191C120.316 102.778 117.544 103.571 114.455 103.571C111.387 103.571 108.974 103.011 107.218 101.889C105.483 100.768 104.616 99.1808 104.616 97.1284ZM158.761 62.0576H177.074C177.688 63.0732 178.143 64.1841 178.439 65.3901C178.735 66.575 178.883 67.6436 178.883 68.5957C178.883 70.7327 178.46 72.3408 177.614 73.4199C176.789 74.499 175.625 75.0386 174.123 75.0386H161.332C160.549 75.0386 160.158 75.3454 160.158 75.959V76.2129C160.158 76.3398 160.179 76.4245 160.221 76.4668H175.392C175.773 77.1227 176.101 77.9479 176.376 78.9424C176.63 80.0215 176.757 80.9842 176.757 81.8306C176.757 84.3485 176.291 86.3162 175.36 87.7339H168.473C165.257 87.7339 163.078 87.8608 161.935 88.1147C160.792 88.3475 160.084 88.5485 159.809 88.7178C159.534 88.9082 159.396 89.1515 159.396 89.4478C159.396 89.744 159.544 89.9767 159.84 90.146C160.941 89.7863 162.094 89.5324 163.3 89.3843C164.887 89.2362 166.611 89.1621 168.473 89.1621H177.392C178.682 90.9818 179.328 93.1717 179.328 95.7319C179.328 97.1707 179.148 98.5461 178.788 99.8579C178.428 101.17 177.889 102.228 177.169 103.032H153.397C150.774 103.032 148.668 102.397 147.082 101.127C145.347 99.7733 144.479 97.7843 144.479 95.1606V64.9775C144.479 63.9619 145.643 63.2214 147.97 62.7559C150.298 62.2904 153.895 62.0576 158.761 62.0576ZM215.954 103.571C213.055 103.571 210.78 103.095 209.13 102.143C207.353 101.149 206.39 99.7415 206.242 97.9219L205.956 94.9385C207.903 94.473 209.542 93.2669 210.875 91.3203C211.235 90.7702 211.415 90.2941 211.415 89.8921C211.415 89.342 211.14 89.0669 210.59 89.0669H210.495C210.473 89.0881 210.431 89.0986 210.368 89.0986C208.887 92.209 206.485 93.7642 203.163 93.7642C201.47 93.7642 200.021 93.3939 198.815 92.6533C197.63 91.9128 196.54 90.6326 195.546 88.813H195.355C194.784 88.813 194.499 89.0563 194.499 89.543C194.499 89.8815 194.625 90.2624 194.879 90.6855C195.726 92.1032 196.784 93.214 198.053 94.0181C199.048 94.6951 200.095 95.0972 201.195 95.2241L200.941 101.223C199.672 102.048 198.328 102.64 196.911 103C195.514 103.381 193.515 103.571 190.912 103.571C188.331 103.571 186.024 103.063 183.993 102.048C181.496 100.799 180.248 99.0645 180.248 96.8428C180.248 94.071 180.798 87.2261 181.898 76.3081C182.491 70.6164 182.967 66.6385 183.327 64.3745C185.506 62.4279 188.722 61.4546 192.975 61.4546C196.064 61.4546 198.625 62.0259 200.656 63.1685L202.401 69.0083L201.291 73.6738C201.206 73.9912 201.164 74.298 201.164 74.5942C201.164 75.3348 201.587 75.7157 202.433 75.7368L205.448 63.2002C206.316 62.7347 207.448 62.3327 208.844 61.9941C210.241 61.6344 211.764 61.4546 213.415 61.4546C216.504 61.4546 218.789 61.9836 220.27 63.0415C221.772 64.0783 222.661 65.8345 222.936 68.3101C223 68.7756 223.095 69.5479 223.222 70.627C225.147 87.1732 226.11 96.9168 226.11 99.8579C223.761 102.333 220.376 103.571 215.954 103.571ZM247.724 82.1479C247.893 82.3172 248.157 82.4019 248.517 82.4019C248.877 82.4019 249.184 82.3278 249.438 82.1797C248.887 78.9635 248.517 77.0592 248.327 76.4668C248.094 75.8532 247.745 75.5464 247.279 75.5464C247.068 75.5464 246.814 75.6099 246.518 75.7368L247.724 82.1479ZM241.439 91.6694C241.228 91.9657 241.122 92.2407 241.122 92.4946C241.122 93.1082 241.693 93.6266 242.836 94.0498C244 94.4518 245.407 94.7057 247.057 94.8115C247.332 97.8584 247.628 99.5934 247.946 100.017C247.544 100.799 246.433 101.593 244.613 102.397C242.794 103.18 240.741 103.571 238.456 103.571C235.43 103.571 232.838 102.926 230.68 101.635C228.522 100.323 227.443 98.6413 227.443 96.5889C227.443 96.0387 227.496 95.5521 227.602 95.1289L234.362 64.9141C236.055 63.835 238.075 62.9886 240.424 62.375C242.772 61.7614 245.216 61.4546 247.755 61.4546C251.395 61.4546 254.505 62.0682 257.086 63.2954C260.028 64.6919 261.815 66.7126 262.45 69.3574L269.687 99.2866C267.486 102.143 263.9 103.571 258.927 103.571C256.515 103.571 254.473 103.138 252.802 102.27C251.13 101.403 250.157 100.165 249.882 98.5566L249.184 94.6846C250.453 94.6634 251.68 94.4201 252.865 93.9546C254.05 93.4891 254.643 93.0024 254.643 92.4946C254.643 92.1561 254.505 91.881 254.23 91.6694C253.426 92.2407 252.442 92.6745 251.278 92.9707C250.115 93.2669 249.035 93.415 248.041 93.415C245.185 93.415 242.984 92.8332 241.439 91.6694Z" fill="white"/>
<path d="M64.3081 90.2095L65.8981 92.7535L67.3081 91.8722V90.2095H64.3081ZM64.3081 87.3213L62.6272 84.8364L61.3081 85.7288V87.3213H64.3081ZM70.3384 84.9409L69.6499 82.021L69.6446 82.0222L70.3384 84.9409ZM77.9238 84.0205L80.0649 81.9191L79.1829 81.0205H77.9238V84.0205ZM80.7168 89.1621L77.8629 90.087L77.8681 90.1029L77.8734 90.1188L80.7168 89.1621ZM81.9229 95.3193L84.6061 96.661L84.9392 95.9949L84.9221 95.2504L81.9229 95.3193ZM79.7646 98.0488L77.6889 95.8829L77.6775 95.8938L77.6663 95.9048L79.7646 98.0488ZM76.1465 100.747L74.6373 98.1538L74.6293 98.1585L74.6213 98.1632L76.1465 100.747ZM48.6611 98.1758L50.7943 96.0664L50.7826 96.0546L50.7708 96.0428L48.6611 98.1758ZM49.2007 66.2788L51.2259 68.4921L51.2359 68.4829L51.2459 68.4736L49.2007 66.2788ZM55.707 62.375L56.6992 65.2062L56.7099 65.2024L56.7206 65.1986L55.707 62.375ZM76.6226 64.9141L78.4344 62.523L76.6226 64.9141ZM79.0981 80.8149L80.93 83.1907L80.939 83.1838L80.9478 83.1769L79.0981 80.8149ZM66.9741 81.6401L65.6461 84.3302L65.6599 84.337L65.6737 84.3436L66.9741 81.6401ZM63.9907 79.3232H60.9907V79.9556L61.246 80.5342L63.9907 79.3232ZM64.0859 75.229L67.0798 75.4201L67.2065 73.4352L65.4276 72.5457L64.0859 75.229ZM62.4038 76.5938L59.4998 75.8409L59.4866 75.8917L59.4752 75.943L62.4038 76.5938ZM63.7368 93.3682C64.4754 93.3682 65.223 93.1754 65.8981 92.7535L62.7181 87.6655C63.0547 87.4551 63.4214 87.3682 63.7368 87.3682V93.3682ZM67.3081 90.2095V87.3213H61.3081V90.2095H67.3081ZM65.989 89.8061C67.0128 89.1136 68.6369 88.429 71.0322 87.8596L69.6446 82.0222C66.8771 82.6801 64.4811 83.5823 62.6272 84.8364L65.989 89.8061ZM71.0268 87.8609C73.4237 87.2957 75.7208 87.0205 77.9238 87.0205V81.0205C75.218 81.0205 72.4582 81.3589 69.6499 82.021L71.0268 87.8609ZM75.7828 86.1219C76.4567 86.8085 77.2 88.0414 77.8629 90.087L83.5707 88.2372C82.7525 85.7125 81.6338 83.5177 80.0649 81.9191L75.7828 86.1219ZM77.8734 90.1188C78.5658 92.1767 78.89 93.9239 78.9236 95.3883L84.9221 95.2504C84.8711 93.0331 84.3912 90.6756 83.5602 88.2055L77.8734 90.1188ZM79.2396 93.9777C79.0257 94.4055 78.5653 95.043 77.6889 95.8829L81.8404 100.215C82.9953 99.108 83.9737 97.9259 84.6061 96.661L79.2396 93.9777ZM77.6663 95.9048C76.8771 96.6772 75.8778 97.4318 74.6373 98.1538L77.6557 103.339C79.2505 102.411 80.6633 101.367 81.863 100.193L77.6663 95.9048ZM74.6213 98.1632C71.6227 99.9335 68.1303 100.857 64.0542 100.857V106.857C69.0764 106.857 73.6455 105.707 77.6716 103.33L74.6213 98.1632ZM64.0542 100.857C58.1479 100.857 53.8545 99.1612 50.7943 96.0664L46.5279 100.285C50.958 104.765 56.9267 106.857 64.0542 106.857V100.857ZM50.7708 96.0428C47.6002 92.907 45.853 88.451 45.853 82.2749H39.853C39.853 89.6405 41.9779 95.7851 46.5515 100.309L50.7708 96.0428ZM45.853 82.2749C45.853 76.1558 47.7298 71.691 51.2259 68.4921L47.1755 64.0655C42.208 68.6107 39.853 74.81 39.853 82.2749H45.853ZM51.2459 68.4736C52.7952 67.03 54.6025 65.9409 56.6992 65.2062L54.7149 59.5438C51.8604 60.5441 49.3302 62.0576 47.1555 64.084L51.2459 68.4736ZM56.7206 65.1986C58.8588 64.431 61.1175 64.042 63.5146 64.042V58.042C60.4529 58.042 57.5064 58.5416 54.6934 59.5514L56.7206 65.1986ZM63.5146 64.042C68.3572 64.042 72.0431 65.2079 74.8107 67.3051L78.4344 62.523C74.3889 59.4574 69.3362 58.042 63.5146 58.042V64.042ZM74.8107 67.3051C77.5788 69.4027 78.7324 71.7488 78.7324 74.4673H84.7324C84.7324 69.6109 82.4795 65.5882 78.4344 62.523L74.8107 67.3051ZM78.7324 74.4673C78.7324 76.6839 78.0819 77.8003 77.2485 78.453L80.9478 83.1769C83.6267 81.0789 84.7324 77.9636 84.7324 74.4673H78.7324ZM77.2662 78.4392C76.1937 79.2663 74.5318 79.8462 71.957 79.8462V85.8462C75.3914 85.8462 78.4903 85.072 80.93 83.1907L77.2662 78.4392ZM71.957 79.8462C70.8098 79.8462 69.591 79.5699 68.2745 78.9366L65.6737 84.3436C67.7004 85.3185 69.8034 85.8462 71.957 85.8462V79.8462ZM68.3021 78.9501C67.5699 78.5886 67.0962 78.2913 66.8147 78.0726C66.4985 77.827 66.6074 77.8221 66.7355 78.1123L61.246 80.5342C61.6914 81.5438 62.4563 82.2847 63.1345 82.8114C63.8474 83.3651 64.7068 83.8665 65.6461 84.3302L68.3021 78.9501ZM66.9907 79.3232C66.9907 77.6128 67.0223 76.3212 67.0798 75.4201L61.092 75.0379C61.0226 76.1258 60.9907 77.5636 60.9907 79.3232H66.9907ZM65.4276 72.5457C64.7015 72.1827 63.9959 72.1973 63.8638 72.1973V78.1973C63.8278 78.1973 63.7221 78.1962 63.5744 78.175C63.4552 78.158 63.129 78.1046 62.7443 77.9123L65.4276 72.5457ZM63.8638 72.1973H63.6416V78.1973H63.8638V72.1973ZM63.6416 72.1973C62.6815 72.1973 61.6112 72.509 60.7586 73.3616L65.0012 77.6042C64.7914 77.814 64.5377 77.976 64.2665 78.0777C64.0046 78.1759 63.7825 78.1973 63.6416 78.1973V72.1973ZM60.7586 73.3616C60.281 73.8392 60.0176 74.3765 59.8765 74.7058C59.7171 75.0777 59.5961 75.4695 59.4998 75.8409L65.3078 77.3466C65.3596 77.1467 65.392 77.0677 65.3913 77.0693C65.3897 77.0731 65.3677 77.1248 65.3185 77.2058C65.272 77.2822 65.1721 77.4334 65.0012 77.6042L60.7586 73.3616ZM59.4752 75.943C59.3459 76.5249 59.2944 77.3097 59.2635 78.0663C59.2294 78.9018 59.2134 79.9709 59.2134 81.2593H65.2134C65.2134 80.0086 65.2291 79.0306 65.2585 78.3109C65.2911 77.5123 65.3347 77.2339 65.3324 77.2445L59.4752 75.943ZM59.2134 81.2593C59.2134 84.3345 59.339 86.8142 59.6353 88.5858C59.7785 89.442 59.9964 90.362 60.3889 91.1442C60.7244 91.8129 61.7172 93.3682 63.7368 93.3682V87.3682C64.4306 87.3682 64.9829 87.6497 65.3282 87.9447C65.6265 88.1995 65.7421 88.4343 65.7517 88.4535C65.7633 88.4766 65.6639 88.2581 65.5531 87.5961C65.3416 86.3314 65.2134 84.2566 65.2134 81.2593H59.2134ZM102.267 100.588L104.236 102.852L105.267 101.955V100.588H102.267ZM98.3633 102.714L97.3706 99.8834L98.3633 102.714ZM86.4932 102.016L88.1038 99.4851L88.079 99.4694L88.0539 99.4541L86.4932 102.016ZM83.7319 64.4697L81.7634 62.2059L80.7319 63.1028V64.4697H83.7319ZM87.6357 62.3433L86.6431 59.5123L87.6357 62.3433ZM99.5376 63.0098L101.154 60.4824L101.118 60.4593L101.081 60.4373L99.5376 63.0098ZM99.2671 67.8022V100.588H105.267V67.8022H99.2671ZM100.299 98.3241C99.6907 98.8526 98.7558 99.3976 97.3706 99.8834L99.356 105.545C101.229 104.889 102.897 104.016 104.236 102.852L100.299 98.3241ZM97.3706 99.8834C96.1498 100.311 94.5276 100.571 92.4282 100.571V106.571C94.9838 106.571 97.3183 106.26 99.356 105.545L97.3706 99.8834ZM92.4282 100.571C90.5532 100.571 89.1609 100.158 88.1038 99.4851L84.8825 104.547C87.0839 105.948 89.6483 106.571 92.4282 106.571V100.571ZM88.0539 99.4541C87.0523 98.8439 86.7319 98.1988 86.7319 97.2554H80.7319C80.7319 100.417 82.2524 102.945 84.9324 104.578L88.0539 99.4541ZM86.7319 97.2554V64.4697H80.7319V97.2554H86.7319ZM85.7005 66.7335C86.3083 66.205 87.2432 65.66 88.6284 65.1743L86.6431 59.5123C84.7698 60.1691 83.1022 61.0417 81.7634 62.2059L85.7005 66.7335ZM88.6284 65.1743C89.8517 64.7453 91.4644 64.4863 93.5391 64.4863V58.4863C91.0011 58.4863 88.6783 58.7986 86.6431 59.5123L88.6284 65.1743ZM93.5391 64.4863C95.3943 64.4863 96.8412 64.8905 97.9941 65.5822L101.081 60.4373C98.8486 59.0978 96.2964 58.4863 93.5391 58.4863V64.4863ZM97.9213 65.5371C98.9444 66.1915 99.2671 66.8698 99.2671 67.8022H105.267C105.267 64.6722 103.77 62.1555 101.154 60.4824L97.9213 65.5371ZM107.25 62.5972L108.387 65.3733L108.396 65.3699L108.404 65.3664L107.25 62.5972ZM117.311 61.9941L116.487 64.8787L116.517 64.8874L116.548 64.8954L117.311 61.9941ZM120.072 63.2319L122.428 61.3745L122.215 61.1043L121.946 60.8893L120.072 63.2319ZM127.309 74.5942L124.737 76.1396L125.611 77.5942H127.309V74.5942ZM127.436 71.8965L124.841 73.4029L124.849 73.417L124.858 73.4309L127.436 71.8965ZM124.008 65.9932H121.008V66.801L121.413 67.4996L124.008 65.9932ZM124.008 64.2476L122.101 61.9318L121.008 62.8318V64.2476H124.008ZM139.242 62.9146L140.794 60.3471L140.78 60.3387L140.766 60.3305L139.242 62.9146ZM139.528 102.397L138.239 99.6878L138.213 99.7005L138.186 99.7137L139.528 102.397ZM129.562 103.063L128.891 105.987L128.901 105.99L129.562 103.063ZM126.515 101.921L124.15 103.766L124.473 104.181L124.919 104.461L126.515 101.921ZM122.04 95.4463L119.468 96.9898L119.479 97.008L119.49 97.0261L122.04 95.4463ZM118.803 90.0508L121.375 88.5073L120.356 86.8082L118.393 87.0789L118.803 90.0508ZM118.803 93.0977L116.235 94.649L116.243 94.6627L116.252 94.6763L118.803 93.0977ZM122.77 99.5088H125.77V98.6556L125.321 97.9302L122.77 99.5088ZM122.77 101.191L124.399 103.71L125.77 102.824V101.191H122.77ZM107.218 101.889L105.59 104.409L105.597 104.413L105.604 104.418L107.218 101.889ZM107.616 97.1284V65.3267H101.616V97.1284H107.616ZM107.616 65.3267C107.616 65.4636 107.586 65.6094 107.53 65.7381C107.476 65.8596 107.424 65.9119 107.433 65.9024C107.445 65.8894 107.513 65.8244 107.676 65.7239C107.837 65.6239 108.068 65.5039 108.387 65.3733L106.113 59.8211C104.117 60.6388 101.616 62.274 101.616 65.3267H107.616ZM108.404 65.3664C109.739 64.8102 111.415 64.4863 113.502 64.4863V58.4863C110.808 58.4863 108.316 58.903 106.096 59.8279L108.404 65.3664ZM113.502 64.4863C114.605 64.4863 115.595 64.6239 116.487 64.8787L118.135 59.1096C116.657 58.6873 115.108 58.4863 113.502 58.4863V64.4863ZM116.548 64.8954C117.543 65.1574 118.018 65.4304 118.198 65.5745L121.946 60.8893C120.857 60.0179 119.491 59.4656 118.075 59.0929L116.548 64.8954ZM117.716 65.0894C118.521 66.1097 119.253 67.1448 119.914 68.1946L124.991 64.9978C124.214 63.7624 123.359 62.5547 122.428 61.3745L117.716 65.0894ZM119.914 68.1946C120.613 69.3054 122.214 71.9421 124.737 76.1396L129.88 73.0488C127.367 68.8675 125.731 66.1722 124.991 64.9978L119.914 68.1946ZM127.309 77.5942C128.234 77.5942 129.089 77.2817 129.785 76.7401L126.102 72.004C126.243 71.8937 126.427 71.7854 126.651 71.7071C126.876 71.6284 127.101 71.5942 127.309 71.5942V77.5942ZM129.785 76.7401C130.873 75.894 131.229 74.6937 131.229 73.7056H125.229C125.229 73.5366 125.256 73.249 125.4 72.9126C125.552 72.5581 125.795 72.2422 126.102 72.004L129.785 76.7401ZM131.229 73.7056C131.229 72.8855 130.936 72.1704 130.778 71.8103C130.576 71.3507 130.31 70.8601 130.013 70.362L124.858 73.4309C124.971 73.6206 125.062 73.7824 125.134 73.9183C125.207 74.0556 125.255 74.1548 125.283 74.2202C125.314 74.2905 125.311 74.2933 125.296 74.2425C125.288 74.2147 125.273 74.1576 125.259 74.0761C125.246 73.9967 125.229 73.8691 125.229 73.7056H131.229ZM130.03 70.3901L126.602 64.4868L121.413 67.4996L124.841 73.4029L130.03 70.3901ZM127.008 65.9932V64.2476H121.008V65.9932H127.008ZM125.915 66.5633C126.654 65.9549 127.61 65.435 128.845 65.0459L127.042 59.3232C125.188 59.9074 123.52 60.7628 122.101 61.9318L125.915 66.5633ZM128.845 65.0459C130.092 64.6529 131.385 64.4546 132.736 64.4546V58.4546C130.786 58.4546 128.884 58.7429 127.042 59.3232L128.845 65.0459ZM132.736 64.4546C135.092 64.4546 136.679 64.8858 137.718 65.4986L140.766 60.3305C138.505 58.9967 135.754 58.4546 132.736 58.4546V64.4546ZM137.69 65.482C138.614 66.04 139.13 66.8216 139.13 68.3735H145.13C145.13 64.9743 143.722 62.1166 140.794 60.3471L137.69 65.482ZM139.13 68.3735V98.4297H145.13V68.3735H139.13ZM139.13 98.4297C139.13 98.8452 139.038 99.0388 138.971 99.1407C138.898 99.2526 138.717 99.4605 138.239 99.6878L140.816 105.106C142.073 104.508 143.194 103.642 143.988 102.432C144.789 101.211 145.13 99.8339 145.13 98.4297H139.13ZM138.186 99.7137C137.277 100.169 135.814 100.508 133.593 100.508V106.508C136.323 106.508 138.817 106.107 140.869 105.08L138.186 99.7137ZM133.593 100.508C132.435 100.508 131.313 100.383 130.223 100.137L128.901 105.99C130.435 106.336 132 106.508 133.593 106.508V100.508ZM130.233 100.139C129.119 99.8839 128.461 99.6004 128.112 99.381L124.919 104.461C126.051 105.172 127.423 105.651 128.891 105.987L130.233 100.139ZM128.88 100.075C127.454 98.2468 126.023 96.179 124.59 93.8664L119.49 97.0261C121.019 99.4954 122.572 101.744 124.15 103.766L128.88 100.075ZM124.613 93.9028L121.375 88.5073L116.23 91.5943L119.468 96.9898L124.613 93.9028ZM118.393 87.0789C117.66 87.1799 116.696 87.4831 115.922 88.3108C115.118 89.17 114.882 90.2032 114.882 91.0347H120.882C120.882 91.2948 120.8 91.8785 120.303 92.4097C119.836 92.9094 119.332 93.0062 119.213 93.0226L118.393 87.0789ZM114.882 91.0347C114.882 91.8885 115.195 92.6439 115.373 93.0425C115.597 93.5445 115.896 94.088 116.235 94.649L121.37 91.5463C121.096 91.0917 120.935 90.7835 120.852 90.5979C120.811 90.5064 120.808 90.4861 120.819 90.5226C120.825 90.5433 120.839 90.5947 120.852 90.6717C120.865 90.7465 120.882 90.8717 120.882 91.0347H114.882ZM116.252 94.6763L120.219 101.087L125.321 97.9302L121.354 91.519L116.252 94.6763ZM119.77 99.5088V101.191H125.77V99.5088H119.77ZM121.141 98.6716C119.2 99.9265 117 100.571 114.455 100.571V106.571C118.087 106.571 121.431 105.629 124.399 103.71L121.141 98.6716ZM114.455 100.571C111.704 100.571 109.93 100.061 108.833 99.3607L105.604 104.418C108.019 105.96 111.069 106.571 114.455 106.571V100.571ZM108.847 99.3696C107.96 98.7965 107.616 98.1546 107.616 97.1284H101.616C101.616 100.207 103.006 102.739 105.59 104.409L108.847 99.3696ZM177.074 62.0576L179.642 60.5063L178.767 59.0576H177.074V62.0576ZM178.439 65.3901L175.526 66.1057L175.529 66.1177L178.439 65.3901ZM177.614 73.4199L175.253 71.5685L175.242 71.583L175.231 71.5976L177.614 73.4199ZM160.221 76.4668L158.1 78.5881L158.979 79.4668H160.221V76.4668ZM175.392 76.4668L177.986 74.9604L177.119 73.4668H175.392V76.4668ZM176.376 78.9424L179.296 78.2553L179.283 78.1987L179.267 78.1426L176.376 78.9424ZM175.36 87.7339V90.7339H176.979L177.868 89.3807L175.36 87.7339ZM161.935 88.1147L162.534 91.0544L162.56 91.0491L162.586 91.0433L161.935 88.1147ZM159.809 88.7178L158.236 86.1628L158.167 86.2052L158.101 86.2512L159.809 88.7178ZM159.84 90.146L158.352 92.7507L159.507 93.4111L160.773 92.9975L159.84 90.146ZM163.3 89.3843L163.021 86.3973L162.978 86.4013L162.934 86.4066L163.3 89.3843ZM177.392 89.1621L179.839 87.4265L178.942 86.1621H177.392V89.1621ZM177.169 103.032V106.032H178.511L179.405 105.032L177.169 103.032ZM147.082 101.127L148.956 98.7848L148.942 98.7736L148.927 98.7625L147.082 101.127ZM158.761 65.0576H177.074V59.0576H158.761V65.0576ZM174.506 63.609C174.956 64.3532 175.298 65.1803 175.526 66.1057L181.352 64.6746C180.987 63.1879 180.42 61.7933 179.642 60.5063L174.506 63.609ZM175.529 66.1177C175.781 67.128 175.883 67.9465 175.883 68.5957H181.883C181.883 67.3406 181.689 66.0221 181.349 64.6625L175.529 66.1177ZM175.883 68.5957C175.883 70.4142 175.51 71.2406 175.253 71.5685L179.974 75.2713C181.41 73.441 181.883 71.0513 181.883 68.5957H175.883ZM175.231 71.5976C175.039 71.8486 174.804 72.0386 174.123 72.0386V78.0386C176.446 78.0386 178.538 77.1494 179.997 75.2423L175.231 71.5976ZM174.123 72.0386H161.332V78.0386H174.123V72.0386ZM161.332 72.0386C160.631 72.0386 159.552 72.1621 158.601 72.9075C157.511 73.7619 157.158 74.9685 157.158 75.959H163.158C163.158 76.12 163.132 76.4001 162.992 76.7304C162.844 77.0788 162.605 77.3922 162.302 77.6298C162.014 77.8558 161.742 77.9555 161.577 77.9987C161.493 78.0204 161.429 78.03 161.391 78.0343C161.371 78.0365 161.356 78.0376 161.346 78.0381C161.342 78.0383 161.338 78.0385 161.336 78.0385C161.333 78.0386 161.332 78.0386 161.332 78.0386V72.0386ZM157.158 75.959V76.2129H163.158V75.959H157.158ZM157.158 76.2129C157.158 76.4212 157.173 76.738 157.263 77.0992C157.349 77.4423 157.557 78.0454 158.1 78.5881L162.343 74.3455C162.843 74.8459 163.019 75.3855 163.084 75.644C163.153 75.9206 163.158 76.1316 163.158 76.2129H157.158ZM160.221 79.4668H175.392V73.4668H160.221V79.4668ZM172.798 77.9732C173.013 78.3439 173.255 78.9127 173.485 79.7421L179.267 78.1426C178.947 76.9831 178.533 75.9015 177.986 74.9604L172.798 77.9732ZM173.456 79.6295C173.672 80.5485 173.757 81.274 173.757 81.8306H179.757C179.757 80.6944 179.588 79.4945 179.296 78.2553L173.456 79.6295ZM173.757 81.8306C173.757 84.03 173.342 85.342 172.853 86.0871L177.868 89.3807C179.241 87.2905 179.757 84.6669 179.757 81.8306H173.757ZM175.36 84.7339H168.473V90.7339H175.36V84.7339ZM168.473 84.7339C165.292 84.7339 162.795 84.8506 161.284 85.1862L162.586 91.0433C163.361 90.8711 165.222 90.7339 168.473 90.7339V84.7339ZM161.336 85.1751C160.728 85.299 160.184 85.4246 159.728 85.5539C159.359 85.6585 158.758 85.8416 158.236 86.1628L161.381 91.2727C161.217 91.3736 161.113 91.4077 161.153 91.3926C161.174 91.3848 161.239 91.362 161.365 91.3263C161.618 91.2546 161.999 91.1633 162.534 91.0544L161.336 85.1751ZM158.101 86.2512C157.138 86.9177 156.396 88.0278 156.396 89.4478H162.396C162.396 89.7849 162.312 90.1635 162.111 90.5193C161.917 90.8618 161.678 91.072 161.516 91.1844L158.101 86.2512ZM156.396 89.4478C156.396 91.003 157.291 92.1445 158.352 92.7507L161.329 87.5413C161.505 87.6421 161.796 87.853 162.038 88.2339C162.293 88.6346 162.396 89.0692 162.396 89.4478H156.396ZM160.773 92.9975C161.68 92.701 162.642 92.4876 163.665 92.3619L162.934 86.4066C161.545 86.5772 160.202 86.8716 158.908 87.2945L160.773 92.9975ZM163.579 92.3713C165.059 92.2331 166.689 92.1621 168.473 92.1621V86.1621C166.533 86.1621 164.714 86.2392 163.021 86.3973L163.579 92.3713ZM168.473 92.1621H177.392V86.1621H168.473V92.1621ZM174.945 90.8977C175.824 92.1378 176.328 93.6985 176.328 95.7319H182.328C182.328 92.6449 181.54 89.8258 179.839 87.4265L174.945 90.8977ZM176.328 95.7319C176.328 96.9182 176.18 98.0257 175.895 99.0646L181.681 100.651C182.116 99.0664 182.328 97.4233 182.328 95.7319H176.328ZM175.895 99.0646C175.627 100.042 175.273 100.652 174.934 101.031L179.405 105.032C180.504 103.804 181.23 102.297 181.681 100.651L175.895 99.0646ZM177.169 100.032H153.397V106.032H177.169V100.032ZM153.397 100.032C151.254 100.032 149.873 99.5184 148.956 98.7848L145.207 103.47C147.464 105.276 150.293 106.032 153.397 106.032V100.032ZM148.927 98.7625C148.064 98.0887 147.479 97.0589 147.479 95.1606H141.479C141.479 98.5098 142.629 101.458 145.236 103.492L148.927 98.7625ZM147.479 95.1606V64.9775H141.479V95.1606H147.479ZM147.479 64.9775C147.479 65.3358 147.365 65.672 147.198 65.9245C147.051 66.146 146.921 66.2175 146.962 66.1914C147.002 66.1662 147.138 66.0904 147.422 65.9921C147.701 65.8959 148.074 65.7945 148.559 65.6976L147.382 59.8141C146.078 60.0748 144.783 60.4666 143.741 61.1294C142.638 61.8314 141.479 63.0936 141.479 64.9775H147.479ZM148.559 65.6976C150.581 65.2931 153.932 65.0576 158.761 65.0576V59.0576C153.858 59.0576 150.014 59.2876 147.382 59.8141L148.559 65.6976ZM209.13 102.143L210.629 99.5445L210.612 99.5347L210.595 99.525L209.13 102.143ZM206.242 97.9219L209.232 97.6785L209.23 97.6572L209.228 97.6359L206.242 97.9219ZM205.956 94.9385L205.258 92.0207L202.721 92.6275L202.97 95.2244L205.956 94.9385ZM210.875 91.3203L213.351 93.0153L213.369 92.9889L213.386 92.9621L210.875 91.3203ZM210.495 89.0669V86.0669H209.252L208.373 86.9456L210.495 89.0669ZM210.368 89.0986V86.0986H208.473L207.659 87.8088L210.368 89.0986ZM198.815 92.6533L197.225 95.1973L197.235 95.2036L197.245 95.2098L198.815 92.6533ZM195.546 88.813L198.178 87.3743L197.325 85.813H195.546V88.813ZM194.879 90.6855L197.455 89.1477L197.452 89.1421L194.879 90.6855ZM198.053 94.0181L199.742 91.5383L199.7 91.5102L199.658 91.4836L198.053 94.0181ZM201.195 95.2241L204.193 95.351L204.311 92.5637L201.539 92.2439L201.195 95.2241ZM200.941 101.223L202.576 103.738L203.873 102.895L203.939 101.35L200.941 101.223ZM196.911 103L196.173 100.092L196.147 100.099L196.121 100.106L196.911 103ZM181.898 76.3081L178.915 75.9975L178.914 76.0073L181.898 76.3081ZM183.327 64.3745L181.328 62.1371L180.531 62.8487L180.364 63.9038L183.327 64.3745ZM200.656 63.1685L203.53 62.3093L203.183 61.148L202.127 60.5537L200.656 63.1685ZM202.401 69.0083L205.32 69.7032L205.506 68.9202L205.276 68.1491L202.401 69.0083ZM201.291 73.6738L204.189 74.4468L204.2 74.4079L204.209 74.3687L201.291 73.6738ZM202.433 75.7368L202.358 78.7359L204.783 78.7965L205.35 76.4383L202.433 75.7368ZM205.448 63.2002L204.03 60.5567L202.846 61.1921L202.531 62.4987L205.448 63.2002ZM208.844 61.9941L209.551 64.9097L209.572 64.9047L209.593 64.8993L208.844 61.9941ZM220.27 63.0415L218.526 65.4827L218.546 65.4968L218.566 65.5106L220.27 63.0415ZM222.936 68.3101L219.954 68.6414L219.959 68.6784L219.964 68.7154L222.936 68.3101ZM223.222 70.627L226.202 70.2802L226.201 70.2764L223.222 70.627ZM226.11 99.8579L228.286 101.923L229.11 101.055V99.8579H226.11ZM215.954 100.571C213.329 100.571 211.646 100.131 210.629 99.5445L207.631 104.742C209.915 106.059 212.781 106.571 215.954 106.571V100.571ZM210.595 99.525C209.571 98.9524 209.288 98.374 209.232 97.6785L203.252 98.1653C203.491 101.109 205.134 103.345 207.665 104.761L210.595 99.525ZM209.228 97.6359L208.942 94.6526L202.97 95.2244L203.255 98.2078L209.228 97.6359ZM206.654 97.8562C209.45 97.1875 211.677 95.4595 213.351 93.0153L208.4 89.6253C207.408 91.0744 206.355 91.7585 205.258 92.0207L206.654 97.8562ZM213.386 92.9621C213.882 92.2041 214.415 91.1402 214.415 89.8921H208.415C208.415 89.6489 208.468 89.505 208.474 89.4905C208.478 89.48 208.474 89.4913 208.456 89.5255C208.438 89.5594 208.409 89.6103 208.365 89.6786L213.386 92.9621ZM214.415 89.8921C214.415 89.1546 214.229 88.0504 213.33 87.1519C212.431 86.2533 211.327 86.0669 210.59 86.0669V92.0669C210.402 92.0669 209.711 92.018 209.087 91.3945C208.464 90.771 208.415 90.0795 208.415 89.8921H214.415ZM210.59 86.0669H210.495V92.0669H210.59V86.0669ZM208.373 86.9456C208.884 86.4345 209.44 86.2502 209.719 86.1803C210.017 86.1058 210.255 86.0986 210.368 86.0986V92.0986C210.544 92.0986 210.835 92.0861 211.175 92.0011C211.497 91.9206 212.084 91.7204 212.616 91.1882L208.373 86.9456ZM207.659 87.8088C207.108 88.9656 206.473 89.6603 205.825 90.0797C205.184 90.4947 204.341 90.7642 203.163 90.7642V96.7642C205.307 96.7642 207.326 96.2561 209.086 95.1159C210.84 93.98 212.146 92.342 213.076 90.3884L207.659 87.8088ZM203.163 90.7642C201.915 90.7642 201.033 90.495 200.385 90.0968L197.245 95.2098C199.009 96.2928 201.026 96.7642 203.163 96.7642V90.7642ZM200.405 90.1093C199.818 89.7424 199.037 88.945 198.178 87.3743L192.913 90.2517C194.044 92.3203 195.442 94.0831 197.225 95.1973L200.405 90.1093ZM195.546 85.813H195.355V91.813H195.546V85.813ZM195.355 85.813C194.714 85.813 193.674 85.9393 192.767 86.7118C191.768 87.5627 191.499 88.7002 191.499 89.543H197.499C197.499 89.8991 197.371 90.6716 196.658 91.2792C196.037 91.8083 195.425 91.813 195.355 91.813V85.813ZM191.499 89.543C191.499 90.6192 191.894 91.54 192.307 92.229L197.452 89.1421C197.413 89.0772 197.42 89.0757 197.44 89.1338C197.46 89.194 197.499 89.3363 197.499 89.543H191.499ZM192.304 92.2234C193.367 94.0042 194.743 95.4728 196.448 96.5525L199.658 91.4836C198.824 90.9552 198.085 90.2022 197.455 89.1477L192.304 92.2234ZM196.365 96.4979C197.725 97.4239 199.228 98.0171 200.851 98.2043L201.539 92.2439C200.962 92.1773 200.37 91.9663 199.742 91.5383L196.365 96.4979ZM198.198 95.0973L197.944 101.096L203.939 101.35L204.193 95.351L198.198 95.0973ZM199.306 98.7073C198.303 99.3598 197.261 99.8161 196.173 100.092L197.648 105.908C199.396 105.465 201.041 104.736 202.576 103.738L199.306 98.7073ZM196.121 100.106C195.109 100.382 193.424 100.571 190.912 100.571V106.571C193.605 106.571 195.919 106.38 197.7 105.894L196.121 100.106ZM190.912 100.571C188.732 100.571 186.896 100.145 185.335 99.3646L182.652 104.731C185.153 105.982 187.929 106.571 190.912 106.571V100.571ZM185.335 99.3646C183.543 98.4687 183.248 97.6173 183.248 96.8428H177.248C177.248 100.512 179.45 103.13 182.652 104.731L185.335 99.3646ZM183.248 96.8428C183.248 94.2557 183.778 87.582 184.883 76.6089L178.914 76.0073C177.819 86.8701 177.248 93.8863 177.248 96.8428H183.248ZM184.882 76.6187C185.475 70.9248 185.944 67.0203 186.289 64.8452L180.364 63.9038C179.99 66.2568 179.507 70.3079 178.915 75.9975L184.882 76.6187ZM185.325 66.6119C186.75 65.3391 189.129 64.4546 192.975 64.4546V58.4546C188.315 58.4546 184.262 59.5167 181.328 62.1371L185.325 66.6119ZM192.975 64.4546C195.711 64.4546 197.726 64.9623 199.185 65.7832L202.127 60.5537C199.523 59.0895 196.417 58.4546 192.975 58.4546V64.4546ZM197.781 64.0276L199.527 69.8675L205.276 68.1491L203.53 62.3093L197.781 64.0276ZM199.483 68.3134L198.372 72.979L204.209 74.3687L205.32 69.7032L199.483 68.3134ZM198.392 72.9008C198.247 73.4433 198.164 74.0105 198.164 74.5942H204.164C204.164 74.5856 204.165 74.5391 204.189 74.4468L198.392 72.9008ZM198.164 74.5942C198.164 75.5439 198.454 76.7467 199.474 77.6652C200.424 78.5199 201.558 78.7159 202.358 78.7359L202.508 72.7378C202.51 72.7378 202.536 72.7385 202.581 72.7452C202.625 72.7519 202.695 72.7655 202.783 72.7935C202.964 72.8507 203.226 72.97 203.488 73.2054C204.085 73.743 204.164 74.3852 204.164 74.5942H198.164ZM205.35 76.4383L208.365 63.9017L202.531 62.4987L199.516 75.0353L205.35 76.4383ZM206.867 65.8437C207.432 65.5401 208.3 65.213 209.551 64.9097L208.137 59.0786C206.596 59.4524 205.199 59.9293 204.03 60.5567L206.867 65.8437ZM209.593 64.8993C210.712 64.6109 211.981 64.4546 213.415 64.4546V58.4546C211.547 58.4546 209.769 58.658 208.096 59.089L209.593 64.8993ZM213.415 64.4546C216.27 64.4546 217.8 64.9637 218.526 65.4827L222.014 60.6003C219.778 59.0034 216.738 58.4546 213.415 58.4546V64.4546ZM218.566 65.5106C219.118 65.8918 219.739 66.6996 219.954 68.6414L225.918 67.9788C225.583 64.9694 224.426 62.2648 221.974 60.5724L218.566 65.5106ZM219.964 68.7154C220.023 69.151 220.115 69.8993 220.242 70.9775L226.201 70.2764C226.074 69.1964 225.976 68.4001 225.909 67.9047L219.964 68.7154ZM220.242 70.9737C222.179 87.6227 223.11 97.1384 223.11 99.8579H229.11C229.11 96.6953 228.115 86.7237 226.202 70.2802L220.242 70.9737ZM223.933 97.7931C222.306 99.5082 219.809 100.571 215.954 100.571V106.571C220.943 106.571 225.216 105.159 228.286 101.923L223.933 97.7931ZM247.724 82.1479L244.775 82.7026L244.947 83.6137L245.602 84.2693L247.724 82.1479ZM249.438 82.1797L250.949 84.771L252.745 83.7234L252.395 81.6739L249.438 82.1797ZM248.327 76.4668L251.183 75.5488L251.159 75.4751L251.132 75.4028L248.327 76.4668ZM246.518 75.7368L245.336 72.9794L243.125 73.9271L243.569 76.2914L246.518 75.7368ZM241.439 91.6694L243.245 89.2734L240.787 87.4216L238.998 89.9257L241.439 91.6694ZM242.836 94.0498L241.794 96.8631L241.825 96.8746L241.856 96.8854L242.836 94.0498ZM247.057 94.8115L250.045 94.5418L249.814 91.9821L247.249 91.8177L247.057 94.8115ZM247.946 100.017L250.615 101.387L251.472 99.7178L250.346 98.2166L247.946 100.017ZM244.613 102.397L245.799 105.153L245.812 105.147L245.826 105.141L244.613 102.397ZM230.68 101.635L229.122 104.199L229.131 104.204L229.14 104.21L230.68 101.635ZM227.602 95.1289L230.512 95.8565L230.521 95.8203L230.529 95.7839L227.602 95.1289ZM234.362 64.9141L232.749 62.3844L231.705 63.0502L231.434 64.259L234.362 64.9141ZM257.086 63.2954L255.798 66.0048L255.8 66.0054L257.086 63.2954ZM262.45 69.3574L259.533 70.0575L259.534 70.0625L262.45 69.3574ZM269.687 99.2866L272.063 101.117L272.94 99.9788L272.603 98.5816L269.687 99.2866ZM252.802 102.27L251.42 104.933L252.802 102.27ZM249.882 98.5566L252.839 98.0508L252.837 98.0375L252.834 98.0242L249.882 98.5566ZM249.184 94.6846L249.134 91.685L245.605 91.7438L246.231 95.217L249.184 94.6846ZM254.23 91.6694L256.059 89.2916L254.301 87.939L252.492 89.2239L254.23 91.6694ZM245.602 84.2693C246.563 85.2295 247.757 85.4019 248.517 85.4019V79.4019C248.558 79.4019 249.223 79.4049 249.845 80.0266L245.602 84.2693ZM248.517 85.4019C249.29 85.4019 250.144 85.2407 250.949 84.771L247.926 79.5884C248.223 79.4149 248.464 79.4019 248.517 79.4019V85.4019ZM252.395 81.6739C251.864 78.573 251.456 76.3974 251.183 75.5488L245.471 77.3848C245.469 77.3796 245.479 77.4104 245.5 77.4938C245.52 77.5725 245.545 77.678 245.576 77.8145C245.638 78.088 245.713 78.4514 245.802 78.912C245.981 79.832 246.207 81.0869 246.48 82.6855L252.395 81.6739ZM251.132 75.4028C250.909 74.8156 250.533 74.1052 249.871 73.523C249.148 72.8876 248.24 72.5464 247.279 72.5464V78.5464C246.784 78.5464 246.284 78.3586 245.91 78.03C245.749 77.8884 245.649 77.754 245.595 77.6672C245.567 77.6233 245.548 77.5885 245.537 77.5661C245.527 77.5437 245.522 77.5311 245.522 77.5308L251.132 75.4028ZM247.279 72.5464C246.506 72.5464 245.829 72.7679 245.336 72.9794L247.699 78.4943C247.733 78.48 247.717 78.4897 247.658 78.5044C247.6 78.5188 247.469 78.5464 247.279 78.5464V72.5464ZM243.569 76.2914L244.775 82.7026L250.672 81.5933L249.466 75.1822L243.569 76.2914ZM238.998 89.9257C238.575 90.5185 238.122 91.3973 238.122 92.4946H244.122C244.122 93.0842 243.881 93.4128 243.881 93.4131L238.998 89.9257ZM238.122 92.4946C238.122 93.8556 238.795 94.8941 239.535 95.5653C240.22 96.1876 241.048 96.5866 241.794 96.8631L243.878 91.2366C243.482 91.0898 243.452 91.018 243.567 91.1219C243.639 91.1874 243.782 91.3361 243.907 91.5853C244.04 91.8486 244.122 92.1626 244.122 92.4946H238.122ZM241.856 96.8854C243.344 97.3994 245.032 97.6879 246.865 97.8054L247.249 91.8177C245.782 91.7236 244.655 91.5042 243.815 91.2142L241.856 96.8854ZM244.069 95.0813C244.21 96.6352 244.361 97.921 244.528 98.9028C244.612 99.3905 244.708 99.8591 244.826 100.274C244.916 100.59 245.113 101.239 245.546 101.817L250.346 98.2166C250.62 98.5822 250.661 98.8556 250.597 98.6328C250.562 98.5078 250.508 98.2729 250.443 97.8931C250.314 97.1399 250.18 96.0347 250.045 94.5418L244.069 95.0813ZM245.277 98.6462C245.382 98.441 245.428 98.5002 245.067 98.7577C244.735 98.9952 244.2 99.2996 243.401 99.6529L245.826 105.141C246.846 104.69 247.777 104.196 248.555 103.64C249.305 103.104 250.107 102.375 250.615 101.387L245.277 98.6462ZM243.428 99.6412C242.036 100.24 240.396 100.571 238.456 100.571V106.571C241.087 106.571 243.552 106.12 245.799 105.153L243.428 99.6412ZM238.456 100.571C235.862 100.571 233.826 100.021 232.22 99.0606L229.14 104.21C231.851 105.831 234.999 106.571 238.456 106.571V100.571ZM232.238 99.0717C230.736 98.1585 230.443 97.341 230.443 96.5889H224.443C224.443 99.9415 226.308 102.488 229.122 104.199L232.238 99.0717ZM230.443 96.5889C230.443 96.2234 230.479 95.9893 230.512 95.8565L224.691 94.4013C224.513 95.1148 224.443 95.8541 224.443 96.5889H230.443ZM230.529 95.7839L237.289 65.5691L231.434 64.259L224.674 94.4739L230.529 95.7839ZM235.974 67.4437C237.355 66.5636 239.075 65.8281 241.182 65.2776L239.665 59.4724C237.076 60.1491 234.754 61.1063 232.749 62.3844L235.974 67.4437ZM241.182 65.2776C243.272 64.7316 245.46 64.4546 247.755 64.4546V58.4546C244.972 58.4546 242.273 58.7912 239.665 59.4724L241.182 65.2776ZM247.755 64.4546C251.067 64.4546 253.714 65.0138 255.798 66.0048L258.375 60.586C255.296 59.1226 251.722 58.4546 247.755 58.4546V64.4546ZM255.8 66.0054C258.101 67.098 259.152 68.471 259.533 70.0575L265.367 68.6573C264.479 64.9541 261.954 62.2858 258.373 60.5854L255.8 66.0054ZM259.534 70.0625L266.771 99.9917L272.603 98.5816L265.366 68.6524L259.534 70.0625ZM267.31 97.4558C265.873 99.321 263.345 100.571 258.927 100.571V106.571C264.454 106.571 269.099 104.965 272.063 101.117L267.31 97.4558ZM258.927 100.571C256.865 100.571 255.325 100.2 254.184 99.6073L251.42 104.933C253.621 106.075 256.165 106.571 258.927 106.571V100.571ZM254.184 99.6073C253.2 99.0966 252.93 98.5819 252.839 98.0508L246.925 99.0625C247.384 101.748 249.061 103.708 251.42 104.933L254.184 99.6073ZM252.834 98.0242L252.136 94.1522L246.231 95.217L246.929 99.089L252.834 98.0242ZM249.234 97.6842C250.863 97.657 252.444 97.3431 253.962 96.7468L251.768 91.1623C250.916 91.4971 250.044 91.6698 249.134 91.685L249.234 97.6842ZM253.962 96.7468C254.681 96.4645 255.456 96.0895 256.102 95.5587C256.733 95.0411 257.643 94.0263 257.643 92.4946H251.643C251.643 91.4708 252.256 90.9532 252.294 90.9223C252.336 90.8878 252.326 90.9035 252.226 90.9571C252.13 91.0084 251.982 91.0783 251.768 91.1623L253.962 96.7468ZM257.643 92.4946C257.643 91.1977 257.051 90.0544 256.059 89.2916L252.401 94.0473C252.225 93.9124 252.015 93.6934 251.856 93.3761C251.696 93.0564 251.643 92.7434 251.643 92.4946H257.643ZM252.492 89.2239C252.047 89.5402 251.419 89.8391 250.538 90.0634L252.018 95.878C253.465 95.5099 254.805 94.9413 255.968 94.115L252.492 89.2239ZM250.538 90.0634C249.568 90.3103 248.741 90.415 248.041 90.415V96.415C249.33 96.415 250.661 96.2235 252.018 95.878L250.538 90.0634ZM248.041 90.415C245.539 90.415 244.073 89.8977 243.245 89.2734L239.634 94.0655C241.895 95.7687 244.83 96.415 248.041 96.415V90.415Z" fill="black" mask="url(#path-23-outside-1_109_208)"/>
<mask id="path-25-outside-2_109_208" maskUnits="userSpaceOnUse" x="4" y="23" width="156" height="49" fill="black">
<rect fill="white" x="4" y="23" width="156" height="49"/>
<path d="M42.7476 68.5713C39.8488 68.5713 37.5742 68.0952 35.9238 67.1431C34.1465 66.1486 33.1838 64.7415 33.0356 62.9219L32.75 59.9385C34.6966 59.473 36.3364 58.2669 37.6694 56.3203C38.0291 55.7702 38.209 55.2941 38.209 54.8921C38.209 54.342 37.9339 54.0669 37.3838 54.0669H37.2886C37.2674 54.0881 37.2251 54.0986 37.1616 54.0986C35.6805 57.209 33.279 58.7642 29.957 58.7642C28.2643 58.7642 26.8149 58.3939 25.6089 57.6533C24.424 56.9128 23.3343 55.6326 22.3398 53.813H22.1494C21.5781 53.813 21.2925 54.0563 21.2925 54.543C21.2925 54.8815 21.4194 55.2624 21.6733 55.6855C22.5197 57.1032 23.5776 58.214 24.8472 59.0181C25.8416 59.6951 26.889 60.0972 27.9893 60.2241L27.7354 66.2227C26.4658 67.0479 25.1222 67.6403 23.7046 68C22.3081 68.3809 20.3086 68.5713 17.7061 68.5713C15.1247 68.5713 12.8184 68.0635 10.7871 67.0479C8.29036 65.7995 7.04199 64.0645 7.04199 61.8428C7.04199 59.071 7.59212 52.2261 8.69238 41.3081C9.28483 35.6164 9.7609 31.6385 10.1206 29.3745C12.3 27.4279 15.5161 26.4546 19.769 26.4546C22.8582 26.4546 25.4185 27.0259 27.4497 28.1685L29.1953 34.0083L28.0845 38.6738C27.9998 38.9912 27.9575 39.298 27.9575 39.5942C27.9575 40.3348 28.3807 40.7157 29.2271 40.7368L32.2422 28.2002C33.1097 27.7347 34.2417 27.3327 35.6382 26.9941C37.0347 26.6344 38.5581 26.4546 40.2085 26.4546C43.2977 26.4546 45.5828 26.9836 47.064 28.0415C48.5662 29.0783 49.4549 30.8345 49.73 33.3101C49.7935 33.7756 49.8887 34.5479 50.0156 35.627C51.9411 52.1732 52.9038 61.9168 52.9038 64.8579C50.5552 67.3335 47.1698 68.5713 42.7476 68.5713ZM70.8677 50.3218V55.876C71.0158 56.0241 71.2591 56.0981 71.5977 56.0981C71.9362 56.0981 72.1795 55.9818 72.3276 55.749C72.4757 55.5163 72.5498 55.1143 72.5498 54.543V50.0044C72.5498 47.9731 72.4652 46.6296 72.2959 45.9736C72.1266 45.2965 71.8092 44.958 71.3438 44.958C71.0475 44.958 70.7936 45.0638 70.582 45.2754C70.7725 47.3701 70.8677 49.0522 70.8677 50.3218ZM58.9976 64.3818C55.5275 61.0387 53.7925 56.5107 53.7925 50.7979C53.7925 45.0638 55.4217 40.5464 58.6802 37.2456C61.9598 33.9237 66.255 32.2627 71.5659 32.2627C76.8768 32.2627 81.172 33.9871 84.4517 37.436C87.7101 40.8849 89.3394 45.3812 89.3394 50.9248C89.3394 56.4473 87.763 60.8377 84.6104 64.0962C81.4788 67.3547 77.2153 68.9839 71.8198 68.9839C66.4243 68.9839 62.1502 67.4499 58.9976 64.3818ZM141.073 43.1172C140.523 43.2865 140.248 43.6144 140.248 44.1011V44.2598C140.248 44.3656 140.258 44.429 140.279 44.4502C140.512 44.429 140.819 44.4185 141.2 44.4185H141.961C144.374 44.4185 146.627 44.7887 148.722 45.5293C150.838 46.2487 152.562 47.4124 153.895 49.0205C155.376 50.8402 156.117 53.1359 156.117 55.9077C156.117 60.2241 154.625 63.4826 151.642 65.6831C148.658 67.8836 144.712 68.9839 139.803 68.9839C134.916 68.9839 131.16 68.1799 128.536 66.5718C125.743 64.8791 124.347 62.4352 124.347 59.2402C124.347 58.013 124.537 56.9128 124.918 55.9395C125.32 54.945 125.743 54.2679 126.188 53.9082C127.351 54.8815 129.033 55.7279 131.234 56.4473C133.456 57.1455 135.804 57.4946 138.28 57.4946C139.274 57.4946 139.771 57.2196 139.771 56.6694C139.771 56.4155 139.74 56.2039 139.676 56.0347C139.528 56.0558 139.348 56.0664 139.137 56.0664H138.788C134.302 56.0664 130.715 55.1777 128.028 53.4004C124.981 51.3903 123.458 48.555 123.458 44.8945C123.458 41.234 124.823 38.2718 127.552 36.0078C130.578 33.5111 134.736 32.2627 140.025 32.2627C142.628 32.2627 145.051 32.5378 147.293 33.0879C149.557 33.638 151.493 34.368 153.102 35.2778C153.504 36.1453 153.705 37.4255 153.705 39.1182C153.705 41.6995 152.996 43.6779 151.578 45.0532C150.499 44.4608 149.177 43.9741 147.611 43.5933C146.066 43.1912 144.67 42.9902 143.421 42.9902C142.173 42.9902 141.39 43.0326 141.073 43.1172ZM107.97 43.1172C107.42 43.2865 107.145 43.6144 107.145 44.1011V44.2598C107.145 44.3656 107.155 44.429 107.176 44.4502C107.409 44.429 107.716 44.4185 108.097 44.4185H108.858C111.271 44.4185 113.524 44.7887 115.619 45.5293C117.735 46.2487 119.459 47.4124 120.792 49.0205C122.273 50.8402 123.014 53.1359 123.014 55.9077C123.014 60.2241 121.522 63.4826 118.539 65.6831C115.555 67.8836 111.567 68.9839 106.573 68.9839C101.58 68.9839 97.6654 68.1587 94.8301 66.5083C92.016 64.8579 90.6089 62.4352 90.6089 59.2402C90.6089 58.0553 90.8628 56.9762 91.3706 56.0029C91.8784 55.0085 92.4497 54.3102 93.0845 53.9082C94.2482 54.8815 95.9303 55.7279 98.1309 56.4473C100.353 57.1455 102.701 57.4946 105.177 57.4946C106.171 57.4946 106.668 57.2196 106.668 56.6694C106.668 56.4155 106.637 56.2039 106.573 56.0347C106.425 56.0558 106.245 56.0664 106.034 56.0664H105.685C101.199 56.0664 97.6125 55.1777 94.9253 53.4004C91.8784 51.3903 90.355 48.555 90.355 44.8945C90.355 41.234 91.7197 38.2718 94.4492 36.0078C97.4749 33.5111 101.633 32.2627 106.922 32.2627C109.525 32.2627 111.948 32.5378 114.19 33.0879C116.454 33.638 118.39 34.368 119.999 35.2778C120.401 36.1453 120.602 37.4255 120.602 39.1182C120.602 41.6995 119.893 43.6779 118.475 45.0532C117.396 44.4608 116.074 43.9741 114.508 43.5933C112.963 43.1912 111.567 42.9902 110.318 42.9902C109.07 42.9902 108.287 43.0326 107.97 43.1172Z"/>
</mask>
<path d="M42.7476 68.5713C39.8488 68.5713 37.5742 68.0952 35.9238 67.1431C34.1465 66.1486 33.1838 64.7415 33.0356 62.9219L32.75 59.9385C34.6966 59.473 36.3364 58.2669 37.6694 56.3203C38.0291 55.7702 38.209 55.2941 38.209 54.8921C38.209 54.342 37.9339 54.0669 37.3838 54.0669H37.2886C37.2674 54.0881 37.2251 54.0986 37.1616 54.0986C35.6805 57.209 33.279 58.7642 29.957 58.7642C28.2643 58.7642 26.8149 58.3939 25.6089 57.6533C24.424 56.9128 23.3343 55.6326 22.3398 53.813H22.1494C21.5781 53.813 21.2925 54.0563 21.2925 54.543C21.2925 54.8815 21.4194 55.2624 21.6733 55.6855C22.5197 57.1032 23.5776 58.214 24.8472 59.0181C25.8416 59.6951 26.889 60.0972 27.9893 60.2241L27.7354 66.2227C26.4658 67.0479 25.1222 67.6403 23.7046 68C22.3081 68.3809 20.3086 68.5713 17.7061 68.5713C15.1247 68.5713 12.8184 68.0635 10.7871 67.0479C8.29036 65.7995 7.04199 64.0645 7.04199 61.8428C7.04199 59.071 7.59212 52.2261 8.69238 41.3081C9.28483 35.6164 9.7609 31.6385 10.1206 29.3745C12.3 27.4279 15.5161 26.4546 19.769 26.4546C22.8582 26.4546 25.4185 27.0259 27.4497 28.1685L29.1953 34.0083L28.0845 38.6738C27.9998 38.9912 27.9575 39.298 27.9575 39.5942C27.9575 40.3348 28.3807 40.7157 29.2271 40.7368L32.2422 28.2002C33.1097 27.7347 34.2417 27.3327 35.6382 26.9941C37.0347 26.6344 38.5581 26.4546 40.2085 26.4546C43.2977 26.4546 45.5828 26.9836 47.064 28.0415C48.5662 29.0783 49.4549 30.8345 49.73 33.3101C49.7935 33.7756 49.8887 34.5479 50.0156 35.627C51.9411 52.1732 52.9038 61.9168 52.9038 64.8579C50.5552 67.3335 47.1698 68.5713 42.7476 68.5713ZM70.8677 50.3218V55.876C71.0158 56.0241 71.2591 56.0981 71.5977 56.0981C71.9362 56.0981 72.1795 55.9818 72.3276 55.749C72.4757 55.5163 72.5498 55.1143 72.5498 54.543V50.0044C72.5498 47.9731 72.4652 46.6296 72.2959 45.9736C72.1266 45.2965 71.8092 44.958 71.3438 44.958C71.0475 44.958 70.7936 45.0638 70.582 45.2754C70.7725 47.3701 70.8677 49.0522 70.8677 50.3218ZM58.9976 64.3818C55.5275 61.0387 53.7925 56.5107 53.7925 50.7979C53.7925 45.0638 55.4217 40.5464 58.6802 37.2456C61.9598 33.9237 66.255 32.2627 71.5659 32.2627C76.8768 32.2627 81.172 33.9871 84.4517 37.436C87.7101 40.8849 89.3394 45.3812 89.3394 50.9248C89.3394 56.4473 87.763 60.8377 84.6104 64.0962C81.4788 67.3547 77.2153 68.9839 71.8198 68.9839C66.4243 68.9839 62.1502 67.4499 58.9976 64.3818ZM141.073 43.1172C140.523 43.2865 140.248 43.6144 140.248 44.1011V44.2598C140.248 44.3656 140.258 44.429 140.279 44.4502C140.512 44.429 140.819 44.4185 141.2 44.4185H141.961C144.374 44.4185 146.627 44.7887 148.722 45.5293C150.838 46.2487 152.562 47.4124 153.895 49.0205C155.376 50.8402 156.117 53.1359 156.117 55.9077C156.117 60.2241 154.625 63.4826 151.642 65.6831C148.658 67.8836 144.712 68.9839 139.803 68.9839C134.916 68.9839 131.16 68.1799 128.536 66.5718C125.743 64.8791 124.347 62.4352 124.347 59.2402C124.347 58.013 124.537 56.9128 124.918 55.9395C125.32 54.945 125.743 54.2679 126.188 53.9082C127.351 54.8815 129.033 55.7279 131.234 56.4473C133.456 57.1455 135.804 57.4946 138.28 57.4946C139.274 57.4946 139.771 57.2196 139.771 56.6694C139.771 56.4155 139.74 56.2039 139.676 56.0347C139.528 56.0558 139.348 56.0664 139.137 56.0664H138.788C134.302 56.0664 130.715 55.1777 128.028 53.4004C124.981 51.3903 123.458 48.555 123.458 44.8945C123.458 41.234 124.823 38.2718 127.552 36.0078C130.578 33.5111 134.736 32.2627 140.025 32.2627C142.628 32.2627 145.051 32.5378 147.293 33.0879C149.557 33.638 151.493 34.368 153.102 35.2778C153.504 36.1453 153.705 37.4255 153.705 39.1182C153.705 41.6995 152.996 43.6779 151.578 45.0532C150.499 44.4608 149.177 43.9741 147.611 43.5933C146.066 43.1912 144.67 42.9902 143.421 42.9902C142.173 42.9902 141.39 43.0326 141.073 43.1172ZM107.97 43.1172C107.42 43.2865 107.145 43.6144 107.145 44.1011V44.2598C107.145 44.3656 107.155 44.429 107.176 44.4502C107.409 44.429 107.716 44.4185 108.097 44.4185H108.858C111.271 44.4185 113.524 44.7887 115.619 45.5293C117.735 46.2487 119.459 47.4124 120.792 49.0205C122.273 50.8402 123.014 53.1359 123.014 55.9077C123.014 60.2241 121.522 63.4826 118.539 65.6831C115.555 67.8836 111.567 68.9839 106.573 68.9839C101.58 68.9839 97.6654 68.1587 94.8301 66.5083C92.016 64.8579 90.6089 62.4352 90.6089 59.2402C90.6089 58.0553 90.8628 56.9762 91.3706 56.0029C91.8784 55.0085 92.4497 54.3102 93.0845 53.9082C94.2482 54.8815 95.9303 55.7279 98.1309 56.4473C100.353 57.1455 102.701 57.4946 105.177 57.4946C106.171 57.4946 106.668 57.2196 106.668 56.6694C106.668 56.4155 106.637 56.2039 106.573 56.0347C106.425 56.0558 106.245 56.0664 106.034 56.0664H105.685C101.199 56.0664 97.6125 55.1777 94.9253 53.4004C91.8784 51.3903 90.355 48.555 90.355 44.8945C90.355 41.234 91.7197 38.2718 94.4492 36.0078C97.4749 33.5111 101.633 32.2627 106.922 32.2627C109.525 32.2627 111.948 32.5378 114.19 33.0879C116.454 33.638 118.39 34.368 119.999 35.2778C120.401 36.1453 120.602 37.4255 120.602 39.1182C120.602 41.6995 119.893 43.6779 118.475 45.0532C117.396 44.4608 116.074 43.9741 114.508 43.5933C112.963 43.1912 111.567 42.9902 110.318 42.9902C109.07 42.9902 108.287 43.0326 107.97 43.1172Z" fill="white"/>
<path d="M35.9238 67.1431L37.423 64.5445L37.4059 64.5347L37.3887 64.525L35.9238 67.1431ZM33.0356 62.9219L36.0258 62.6785L36.024 62.6572L36.022 62.6359L33.0356 62.9219ZM32.75 59.9385L32.0523 57.0207L29.515 57.6275L29.7637 60.2244L32.75 59.9385ZM37.6694 56.3203L40.1447 58.0153L40.1628 57.9889L40.1803 57.9621L37.6694 56.3203ZM37.2886 54.0669V51.0669H36.0459L35.1673 51.9456L37.2886 54.0669ZM37.1616 54.0986V51.0986H35.2674L34.453 52.8088L37.1616 54.0986ZM25.6089 57.6533L24.0189 60.1973L24.029 60.2036L24.0391 60.2098L25.6089 57.6533ZM22.3398 53.813L24.9724 52.3743L24.1191 50.813H22.3398V53.813ZM21.6733 55.6855L24.2492 54.1477L24.2458 54.1421L21.6733 55.6855ZM24.8472 59.0181L26.5355 56.5383L26.4944 56.5102L26.4523 56.4836L24.8472 59.0181ZM27.9893 60.2241L30.9866 60.351L31.1046 57.5637L28.3331 57.2439L27.9893 60.2241ZM27.7354 66.2227L29.3703 68.738L30.6673 67.895L30.7327 66.3495L27.7354 66.2227ZM23.7046 68L22.9668 65.0921L22.9409 65.0987L22.9152 65.1057L23.7046 68ZM8.69238 41.3081L5.70849 40.9975L5.7075 41.0073L8.69238 41.3081ZM10.1206 29.3745L8.12213 27.1371L7.32539 27.8487L7.15777 28.9038L10.1206 29.3745ZM27.4497 28.1685L30.324 27.3093L29.9769 26.148L28.9205 25.5537L27.4497 28.1685ZM29.1953 34.0083L32.1137 34.7032L32.3001 33.9202L32.0696 33.1491L29.1953 34.0083ZM28.0845 38.6738L30.9832 39.4468L30.9936 39.4079L31.0029 39.3687L28.0845 38.6738ZM29.2271 40.7368L29.1521 43.7359L31.5767 43.7965L32.1439 41.4383L29.2271 40.7368ZM32.2422 28.2002L30.8237 25.5567L29.6396 26.1921L29.3254 27.4987L32.2422 28.2002ZM35.6382 26.9941L36.345 29.9097L36.3658 29.9047L36.3865 29.8993L35.6382 26.9941ZM47.064 28.0415L45.3203 30.4827L45.34 30.4968L45.36 30.5106L47.064 28.0415ZM49.73 33.3101L46.7483 33.6414L46.7524 33.6784L46.7575 33.7154L49.73 33.3101ZM50.0156 35.627L52.9955 35.2802L52.9951 35.2764L50.0156 35.627ZM52.9038 64.8579L55.0802 66.9227L55.9038 66.0546V64.8579H52.9038ZM42.7476 65.5713C40.1225 65.5713 38.4397 65.1311 37.423 64.5445L34.4247 69.7416C36.7087 71.0594 39.5751 71.5713 42.7476 71.5713V65.5713ZM37.3887 64.525C36.3653 63.9524 36.0824 63.374 36.0258 62.6785L30.0455 63.1653C30.2851 66.109 31.9276 68.3448 34.459 69.7611L37.3887 64.525ZM36.022 62.6359L35.7363 59.6526L29.7637 60.2244L30.0493 63.2078L36.022 62.6359ZM33.4477 62.8562C36.2443 62.1875 38.471 60.4595 40.1447 58.0153L35.1942 54.6253C34.2019 56.0744 33.1489 56.7585 32.0523 57.0207L33.4477 62.8562ZM40.1803 57.9621C40.6759 57.2041 41.209 56.1402 41.209 54.8921H35.209C35.209 54.6489 35.2622 54.505 35.2677 54.4905C35.2716 54.48 35.2681 54.4913 35.2501 54.5255C35.2323 54.5594 35.2032 54.6103 35.1585 54.6786L40.1803 57.9621ZM41.209 54.8921C41.209 54.1546 41.0226 53.0504 40.124 52.1519C39.2254 51.2533 38.1213 51.0669 37.3838 51.0669V57.0669C37.1964 57.0669 36.5049 57.018 35.8814 56.3945C35.2579 55.771 35.209 55.0795 35.209 54.8921H41.209ZM37.3838 51.0669H37.2886V57.0669H37.3838V51.0669ZM35.1673 51.9456C35.6783 51.4345 36.2338 51.2502 36.5134 51.1803C36.8111 51.1058 37.0486 51.0986 37.1616 51.0986V57.0986C37.3382 57.0986 37.6285 57.0861 37.9686 57.0011C38.2905 56.9206 38.8777 56.7204 39.4099 56.1882L35.1673 51.9456ZM34.453 52.8088C33.9022 53.9656 33.2665 54.6603 32.619 55.0797C31.9781 55.4947 31.1346 55.7642 29.957 55.7642V61.7642C32.1014 61.7642 34.1196 61.2561 35.8803 60.1159C37.6343 58.98 38.9399 57.342 39.8702 55.3884L34.453 52.8088ZM29.957 55.7642C28.709 55.7642 27.8272 55.495 27.1787 55.0968L24.0391 60.2098C25.8027 61.2928 27.8196 61.7642 29.957 61.7642V55.7642ZM27.1989 55.1093C26.6118 54.7424 25.8308 53.945 24.9724 52.3743L19.7073 55.2517C20.8378 57.3203 22.2362 59.0831 24.0189 60.1973L27.1989 55.1093ZM22.3398 50.813H22.1494V56.813H22.3398V50.813ZM22.1494 50.813C21.5084 50.813 20.4681 50.9393 19.5613 51.7118C18.5624 52.5627 18.2925 53.7002 18.2925 54.543H24.2925C24.2925 54.8991 24.1654 55.6716 23.4521 56.2792C22.831 56.8083 22.2191 56.813 22.1494 56.813V50.813ZM18.2925 54.543C18.2925 55.6192 18.6875 56.54 19.1009 57.229L24.2458 54.1421C24.2069 54.0772 24.2144 54.0757 24.2337 54.1338C24.2538 54.194 24.2925 54.3363 24.2925 54.543H18.2925ZM19.0975 57.2234C20.1606 59.0042 21.5373 60.4728 23.242 61.5525L26.4523 56.4836C25.618 55.9552 24.8787 55.2022 24.2492 54.1477L19.0975 57.2234ZM23.1588 61.4979C24.519 62.4239 26.0223 63.0171 27.6454 63.2043L28.3331 57.2439C27.7557 57.1773 27.1643 56.9663 26.5355 56.5383L23.1588 61.4979ZM24.9919 60.0973L24.738 66.0958L30.7327 66.3495L30.9866 60.351L24.9919 60.0973ZM26.1004 63.7073C25.0966 64.3598 24.0547 64.8161 22.9668 65.0921L24.4424 70.9079C26.1897 70.4645 27.8351 69.7359 29.3703 68.738L26.1004 63.7073ZM22.9152 65.1057C21.9034 65.3817 20.2179 65.5713 17.7061 65.5713V71.5713C20.3993 71.5713 22.7128 71.3801 24.4939 70.8943L22.9152 65.1057ZM17.7061 65.5713C15.5264 65.5713 13.6897 65.145 12.1288 64.3646L9.44547 69.7311C11.947 70.9819 14.723 71.5713 17.7061 71.5713V65.5713ZM12.1288 64.3646C10.3369 63.4687 10.042 62.6173 10.042 61.8428H4.04199C4.04199 65.5116 6.2438 68.1303 9.44547 69.7311L12.1288 64.3646ZM10.042 61.8428C10.042 59.2557 10.5714 52.582 11.6773 41.6089L5.7075 41.0073C4.6128 51.8701 4.04199 58.8863 4.04199 61.8428H10.042ZM11.6763 41.6187C12.2689 35.9248 12.7379 32.0203 13.0834 29.8452L7.15777 28.9038C6.78393 31.2568 6.30073 35.3079 5.7085 40.9975L11.6763 41.6187ZM12.1191 31.6119C13.5441 30.3391 15.9231 29.4546 19.769 29.4546V23.4546C15.1091 23.4546 11.0559 24.5167 8.12213 27.1371L12.1191 31.6119ZM19.769 29.4546C22.5051 29.4546 24.5195 29.9623 25.9789 30.7832L28.9205 25.5537C26.3174 24.0895 23.2113 23.4546 19.769 23.4546V29.4546ZM24.5754 29.0276L26.321 34.8675L32.0696 33.1491L30.324 27.3093L24.5754 29.0276ZM26.2769 33.3134L25.1661 37.979L31.0029 39.3687L32.1137 34.7032L26.2769 33.3134ZM25.1858 37.9008C25.0411 38.4433 24.9575 39.0105 24.9575 39.5942H30.9575C30.9575 39.5856 30.9586 39.5391 30.9832 39.4468L25.1858 37.9008ZM24.9575 39.5942C24.9575 40.5439 25.2475 41.7467 26.268 42.6652C27.2176 43.5199 28.3515 43.7159 29.1521 43.7359L29.302 37.7378C29.3044 37.7378 29.3299 37.7385 29.3745 37.7452C29.4191 37.7519 29.4889 37.7655 29.5773 37.7935C29.7579 37.8507 30.0202 37.97 30.2818 38.2054C30.8792 38.743 30.9575 39.3852 30.9575 39.5942H24.9575ZM32.1439 41.4383L35.159 28.9017L29.3254 27.4987L26.3102 40.0353L32.1439 41.4383ZM33.6606 30.8437C34.2264 30.5401 35.0938 30.213 36.345 29.9097L34.9314 24.0786C33.3895 24.4524 31.993 24.9293 30.8237 25.5567L33.6606 30.8437ZM36.3865 29.8993C37.5063 29.6109 38.775 29.4546 40.2085 29.4546V23.4546C38.3413 23.4546 36.563 23.658 34.8899 24.089L36.3865 29.8993ZM40.2085 29.4546C43.0639 29.4546 44.5937 29.9637 45.3203 30.4827L48.8077 25.6003C46.572 24.0034 43.5315 23.4546 40.2085 23.4546V29.4546ZM45.36 30.5106C45.9123 30.8918 46.5326 31.6996 46.7483 33.6414L52.7116 32.9788C52.3773 29.9694 51.2202 27.2648 48.768 25.5724L45.36 30.5106ZM46.7575 33.7154C46.8169 34.151 46.9093 34.8993 47.0362 35.9775L52.9951 35.2764C52.868 34.1964 52.77 33.4001 52.7025 32.9047L46.7575 33.7154ZM47.0357 35.9737C48.9731 52.6227 49.9038 62.1384 49.9038 64.8579H55.9038C55.9038 61.6953 54.909 51.7237 52.9955 35.2802L47.0357 35.9737ZM50.7274 62.7931C49.1003 64.5082 46.603 65.5713 42.7476 65.5713V71.5713C47.7365 71.5713 52.0101 70.1588 55.0802 66.9227L50.7274 62.7931ZM70.8677 55.876H67.8677V57.1186L68.7464 57.9973L70.8677 55.876ZM72.2959 45.9736L69.3855 46.7012L69.3882 46.7123L69.3911 46.7233L72.2959 45.9736ZM70.582 45.2754L68.4607 43.1541L67.4671 44.1476L67.5944 45.547L70.582 45.2754ZM58.9976 64.3818L61.0898 62.2319L61.0844 62.2266L61.079 62.2214L58.9976 64.3818ZM58.6802 37.2456L56.5453 35.1379L56.5452 35.138L58.6802 37.2456ZM84.4517 37.436L86.6323 35.3758L86.6257 35.3687L84.4517 37.436ZM84.6104 64.0962L82.4543 62.0101L82.4473 62.0174L84.6104 64.0962ZM67.8677 50.3218V55.876H73.8677V50.3218H67.8677ZM68.7464 57.9973C69.7194 58.9704 70.9333 59.0981 71.5977 59.0981V53.0981C71.6329 53.0981 71.7973 53.1003 72.0347 53.1726C72.2841 53.2485 72.6478 53.4134 72.989 53.7547L68.7464 57.9973ZM71.5977 59.0981C72.6938 59.0981 74.0299 58.662 74.8586 57.3596L69.7967 54.1384C70.0169 53.7924 70.3426 53.4944 70.7397 53.3045C71.1117 53.1265 71.4301 53.0981 71.5977 53.0981V59.0981ZM74.8586 57.3596C75.4997 56.3522 75.5498 55.1907 75.5498 54.543H69.5498C69.5498 54.7122 69.5378 54.7626 69.5439 54.7295C69.5477 54.7091 69.5605 54.6454 69.5933 54.5517C69.6257 54.4591 69.6866 54.3113 69.7967 54.1384L74.8586 57.3596ZM75.5498 54.543V50.0044H69.5498V54.543H75.5498ZM75.5498 50.0044C75.5498 48.0393 75.4811 46.3103 75.2007 45.224L69.3911 46.7233C69.3906 46.7216 69.4082 46.7937 69.4309 46.9724C69.4525 47.1427 69.4739 47.3697 69.4923 47.6619C69.5292 48.248 69.5498 49.0236 69.5498 50.0044H75.5498ZM75.2063 45.246C75.0554 44.6421 74.7604 43.8436 74.1195 43.1601C73.3917 42.3837 72.4028 41.958 71.3438 41.958V47.958C71.0883 47.958 70.7856 47.9097 70.4744 47.7751C70.1629 47.6404 69.919 47.4522 69.7423 47.2637C69.4188 46.9187 69.3672 46.628 69.3855 46.7012L75.2063 45.246ZM71.3438 41.958C70.2428 41.958 69.2285 42.3863 68.4607 43.1541L72.7034 47.3967C72.5566 47.5435 72.3504 47.696 72.085 47.8066C71.819 47.9174 71.5609 47.958 71.3438 47.958V41.958ZM67.5944 45.547C67.7811 47.6017 67.8677 49.1823 67.8677 50.3218H73.8677C73.8677 48.9222 73.7638 47.1386 73.5697 45.0038L67.5944 45.547ZM61.079 62.2214C58.3041 59.5479 56.7925 55.8592 56.7925 50.7979H50.7925C50.7925 57.1623 52.751 62.5295 56.9161 66.5423L61.079 62.2214ZM56.7925 50.7979C56.7925 45.6555 58.2356 41.9663 60.8151 39.3532L56.5452 35.138C52.6078 39.1265 50.7925 44.4721 50.7925 50.7979H56.7925ZM60.8151 39.3533C63.4517 36.6826 66.9369 35.2627 71.5659 35.2627V29.2627C65.5732 29.2627 60.4679 31.1647 56.5453 35.1379L60.8151 39.3533ZM71.5659 35.2627C76.16 35.2627 79.6329 36.7221 82.2777 39.5033L86.6257 35.3687C82.7112 31.2522 77.5936 29.2627 71.5659 29.2627V35.2627ZM82.271 39.4963C84.9156 42.2954 86.3394 46.0093 86.3394 50.9248H92.3394C92.3394 44.753 90.5047 39.4744 86.6323 35.3758L82.271 39.4963ZM86.3394 50.9248C86.3394 55.8486 84.9523 59.4284 82.4543 62.0102L86.7664 66.1822C90.5738 62.2471 92.3394 57.0459 92.3394 50.9248H86.3394ZM82.4473 62.0174C79.9898 64.5746 76.5698 65.9839 71.8198 65.9839V71.9839C77.8609 71.9839 82.9679 70.1347 86.7734 66.175L82.4473 62.0174ZM71.8198 65.9839C67.0185 65.9839 63.5611 64.6368 61.0898 62.2319L56.9053 66.5318C60.7393 70.2629 65.8302 71.9839 71.8198 71.9839V65.9839ZM141.073 43.1172L140.3 40.2185L140.245 40.2331L140.19 40.2499L141.073 43.1172ZM140.279 44.4502L138.158 46.5715L139.152 47.5651L140.551 47.4379L140.279 44.4502ZM148.722 45.5293L147.722 48.3577L147.739 48.3638L147.756 48.3696L148.722 45.5293ZM153.895 49.0205L156.222 47.1267L156.213 47.1163L156.205 47.1059L153.895 49.0205ZM128.536 66.5718L130.104 64.014L130.097 64.0101L130.091 64.0062L128.536 66.5718ZM124.918 55.9395L122.137 54.8151L122.13 54.8306L122.124 54.8463L124.918 55.9395ZM126.188 53.9082L128.112 51.607L126.219 50.0233L124.3 51.5765L126.188 53.9082ZM131.234 56.4473L130.302 59.2988L130.318 59.3041L130.334 59.3092L131.234 56.4473ZM139.676 56.0347L142.485 54.9813L141.639 52.7239L139.252 53.0648L139.676 56.0347ZM128.028 53.4004L129.683 50.8982L129.68 50.8962L128.028 53.4004ZM127.552 36.0078L125.643 33.6939L125.637 33.6988L127.552 36.0078ZM147.293 33.0879L146.579 36.0015L146.585 36.0031L147.293 33.0879ZM153.102 35.2778L155.823 34.0164L155.418 33.1416L154.579 32.6668L153.102 35.2778ZM151.578 45.0532L150.134 47.683L152.077 48.7493L153.667 47.2064L151.578 45.0532ZM147.611 43.5933L146.855 46.4965L146.878 46.5026L146.902 46.5083L147.611 43.5933ZM107.97 43.1172L107.197 40.2185L107.142 40.2331L107.087 40.2499L107.97 43.1172ZM107.176 44.4502L105.055 46.5715L106.049 47.5651L107.448 47.4379L107.176 44.4502ZM115.619 45.5293L114.619 48.3577L114.636 48.3638L114.653 48.3696L115.619 45.5293ZM120.792 49.0205L123.119 47.1267L123.11 47.1163L123.102 47.1059L120.792 49.0205ZM94.8301 66.5083L93.3124 69.0961L93.3209 69.101L94.8301 66.5083ZM91.3706 56.0029L94.0304 57.3906L94.0364 57.379L94.0424 57.3673L91.3706 56.0029ZM93.0845 53.9082L95.0091 51.607L93.3293 50.2021L91.4793 51.3737L93.0845 53.9082ZM98.1309 56.4473L97.1986 59.2988L97.215 59.3041L97.2314 59.3092L98.1309 56.4473ZM106.573 56.0347L109.382 54.9813L108.536 52.7239L106.149 53.0648L106.573 56.0347ZM94.9253 53.4004L96.5803 50.8982L96.5773 50.8962L94.9253 53.4004ZM94.4492 36.0078L92.5398 33.6939L92.534 33.6988L94.4492 36.0078ZM114.19 33.0879L113.476 36.0015L113.482 36.0031L114.19 33.0879ZM119.999 35.2778L122.72 34.0164L122.315 33.1416L121.476 32.6668L119.999 35.2778ZM118.475 45.0532L117.031 47.683L118.974 48.7493L120.564 47.2064L118.475 45.0532ZM114.508 43.5933L113.752 46.4965L113.775 46.5026L113.799 46.5083L114.508 43.5933ZM140.19 40.2499C139.548 40.4475 138.772 40.8267 138.155 41.5623C137.503 42.3401 137.248 43.2551 137.248 44.1011H143.248C143.248 44.4604 143.13 44.9681 142.752 45.4179C142.411 45.8256 142.047 45.9562 141.955 45.9845L140.19 40.2499ZM137.248 44.1011V44.2598H143.248V44.1011H137.248ZM137.248 44.2598C137.248 44.3872 137.252 44.6151 137.296 44.8799C137.31 44.9592 137.423 45.8364 138.158 46.5715L142.401 42.3289C142.813 42.7408 142.998 43.1683 143.074 43.373C143.16 43.6022 143.198 43.7915 143.215 43.8935C143.248 44.0949 143.248 44.2382 143.248 44.2598H137.248ZM140.551 47.4379C140.655 47.4284 140.861 47.4185 141.2 47.4185V41.4185C140.777 41.4185 140.369 41.4297 140.008 41.4625L140.551 47.4379ZM141.2 47.4185H141.961V41.4185H141.2V47.4185ZM141.961 47.4185C144.062 47.4185 145.975 47.7401 147.722 48.3577L149.722 42.7009C147.279 41.8374 144.685 41.4185 141.961 41.4185V47.4185ZM147.756 48.3696C149.385 48.9235 150.631 49.7839 151.585 50.9351L156.205 47.1059C154.493 45.041 152.29 43.5739 149.687 42.689L147.756 48.3696ZM151.568 50.9143C152.538 52.1057 153.117 53.6952 153.117 55.9077H159.117C159.117 52.5767 158.214 49.5747 156.222 47.1267L151.568 50.9143ZM153.117 55.9077C153.117 59.4496 151.945 61.7319 149.861 63.2688L153.422 68.0974C157.305 65.2333 159.117 60.9986 159.117 55.9077H153.117ZM149.861 63.2688C147.538 64.9823 144.278 65.9839 139.803 65.9839V71.9839C145.147 71.9839 149.779 70.7849 153.422 68.0974L149.861 63.2688ZM139.803 65.9839C135.173 65.9839 132.055 65.2097 130.104 64.014L126.968 69.1296C130.265 71.15 134.658 71.9839 139.803 71.9839V65.9839ZM130.091 64.0062C128.171 62.8424 127.347 61.358 127.347 59.2402H121.347C121.347 63.5125 123.316 66.9157 126.981 69.1374L130.091 64.0062ZM127.347 59.2402C127.347 58.3231 127.489 57.6026 127.712 57.0327L122.124 54.8463C121.586 56.2229 121.347 57.7029 121.347 59.2402H127.347ZM127.699 57.0638C127.856 56.6772 127.987 56.4259 128.081 56.2758C128.181 56.116 128.191 56.1458 128.075 56.2399L124.3 51.5765C123.246 52.4294 122.589 53.6955 122.137 54.8151L127.699 57.0638ZM124.263 56.2094C125.832 57.5215 127.91 58.5167 130.302 59.2988L132.166 53.5958C130.157 52.939 128.871 52.2416 128.112 51.607L124.263 56.2094ZM130.334 59.3092C132.865 60.1046 135.518 60.4946 138.28 60.4946V54.4946C136.09 54.4946 134.046 54.1864 132.133 53.5853L130.334 59.3092ZM138.28 60.4946C138.955 60.4946 139.938 60.4182 140.851 59.9134C141.352 59.636 141.869 59.2077 142.248 58.5788C142.63 57.9449 142.771 57.2736 142.771 56.6694H136.771C136.771 56.3404 136.851 55.9097 137.109 55.4821C137.363 55.0595 137.693 54.8031 137.946 54.6632C138.362 54.4335 138.599 54.4946 138.28 54.4946V60.4946ZM142.771 56.6694C142.771 56.1902 142.715 55.5937 142.485 54.9813L136.867 57.088C136.813 56.944 136.791 56.8306 136.781 56.7653C136.771 56.6996 136.771 56.6648 136.771 56.6694H142.771ZM139.252 53.0648C139.275 53.0616 139.277 53.0623 139.254 53.0636C139.232 53.065 139.194 53.0664 139.137 53.0664V59.0664C139.437 59.0664 139.768 59.0521 140.101 59.0045L139.252 53.0648ZM139.137 53.0664H138.788V59.0664H139.137V53.0664ZM138.788 53.0664C134.668 53.0664 131.722 52.2466 129.683 50.8982L126.373 55.9026C129.709 58.1088 133.936 59.0664 138.788 59.0664V53.0664ZM129.68 50.8962C127.478 49.4432 126.458 47.5503 126.458 44.8945H120.458C120.458 49.5598 122.485 53.3374 126.376 55.9045L129.68 50.8962ZM126.458 44.8945C126.458 42.0936 127.45 39.9901 129.468 38.3169L125.637 33.6988C122.195 36.5535 120.458 40.3745 120.458 44.8945H126.458ZM129.462 38.3217C131.788 36.4018 135.189 35.2627 140.025 35.2627V29.2627C134.282 29.2627 129.368 30.6203 125.643 33.6939L129.462 38.3217ZM140.025 35.2627C142.417 35.2627 144.597 35.5155 146.579 36.0015L148.008 30.1743C145.504 29.56 142.839 29.2627 140.025 29.2627V35.2627ZM146.585 36.0031C148.647 36.504 150.31 37.1455 151.624 37.8889L154.579 32.6668C152.677 31.5905 150.468 30.772 148.002 30.1727L146.585 36.0031ZM150.38 36.5392C150.508 36.8156 150.705 37.5757 150.705 39.1182H156.705C156.705 37.2752 156.499 35.475 155.823 34.0164L150.38 36.5392ZM150.705 39.1182C150.705 41.1485 150.161 42.2484 149.489 42.9L153.667 47.2064C155.831 45.1074 156.705 42.2506 156.705 39.1182H150.705ZM153.022 42.4235C151.653 41.6719 150.068 41.1034 148.32 40.6783L146.902 46.5083C148.285 46.8448 149.345 47.2496 150.134 47.683L153.022 42.4235ZM148.366 40.69C146.64 40.2406 144.984 39.9902 143.421 39.9902V45.9902C144.356 45.9902 145.493 46.1419 146.855 46.4965L148.366 40.69ZM143.421 39.9902C142.771 39.9902 142.203 40.0011 141.736 40.0263C141.343 40.0476 140.789 40.0879 140.3 40.2185L141.846 46.0159C141.721 46.0491 141.666 46.0507 141.742 46.0419C141.8 46.0352 141.902 46.0261 142.06 46.0176C142.376 46.0005 142.824 45.9902 143.421 45.9902V39.9902ZM107.087 40.2499C106.445 40.4475 105.669 40.8267 105.052 41.5623C104.4 42.3401 104.145 43.2551 104.145 44.1011H110.145C110.145 44.4604 110.027 44.9681 109.649 45.4179C109.308 45.8256 108.944 45.9562 108.852 45.9845L107.087 40.2499ZM104.145 44.1011V44.2598H110.145V44.1011H104.145ZM104.145 44.2598C104.145 44.3872 104.149 44.6151 104.193 44.8799C104.206 44.9592 104.32 45.8364 105.055 46.5715L109.298 42.3289C109.71 42.7408 109.895 43.1683 109.971 43.373C110.057 43.6022 110.095 43.7915 110.112 43.8935C110.145 44.0949 110.145 44.2382 110.145 44.2598H104.145ZM107.448 47.4379C107.552 47.4284 107.758 47.4185 108.097 47.4185V41.4185C107.674 41.4185 107.266 41.4297 106.905 41.4625L107.448 47.4379ZM108.097 47.4185H108.858V41.4185H108.097V47.4185ZM108.858 47.4185C110.959 47.4185 112.872 47.7401 114.619 48.3577L116.619 42.7009C114.176 41.8374 111.582 41.4185 108.858 41.4185V47.4185ZM114.653 48.3696C116.282 48.9235 117.528 49.7839 118.482 50.9351L123.102 47.1059C121.39 45.041 119.187 43.5739 116.584 42.689L114.653 48.3696ZM118.465 50.9143C119.435 52.1057 120.014 53.6952 120.014 55.9077H126.014C126.014 52.5767 125.111 49.5747 123.119 47.1267L118.465 50.9143ZM120.014 55.9077C120.014 59.4496 118.842 61.7319 116.758 63.2688L120.319 68.0974C124.202 65.2333 126.014 60.9986 126.014 55.9077H120.014ZM116.758 63.2688C114.443 64.9765 111.145 65.9839 106.573 65.9839V71.9839C111.988 71.9839 116.668 70.7908 120.319 68.0974L116.758 63.2688ZM106.573 65.9839C101.855 65.9839 98.5373 65.195 96.3393 63.9156L93.3209 69.101C96.7935 71.1224 101.305 71.9839 106.573 71.9839V65.9839ZM96.3477 63.9205C94.428 62.7946 93.6089 61.3433 93.6089 59.2402H87.6089C87.6089 63.5271 89.6039 66.9212 93.3124 69.0961L96.3477 63.9205ZM93.6089 59.2402C93.6089 58.4993 93.7635 57.902 94.0304 57.3906L88.7109 54.6152C87.962 56.0505 87.6089 57.6114 87.6089 59.2402H93.6089ZM94.0424 57.3673C94.221 57.0175 94.379 56.7832 94.5018 56.6331C94.6236 56.4842 94.6917 56.4413 94.6896 56.4427L91.4793 51.3737C90.2218 52.1702 89.3404 53.3822 88.6988 54.6386L94.0424 57.3673ZM91.1598 56.2094C92.7285 57.5215 94.8066 58.5167 97.1986 59.2988L99.0631 53.5958C97.054 52.939 95.7679 52.2416 95.0091 51.607L91.1598 56.2094ZM97.2314 59.3092C99.7619 60.1046 102.415 60.4946 105.177 60.4946V54.4946C102.987 54.4946 100.943 54.1864 99.0303 53.5853L97.2314 59.3092ZM105.177 60.4946C105.852 60.4946 106.835 60.4182 107.748 59.9134C108.249 59.636 108.766 59.2077 109.145 58.5788C109.527 57.9449 109.668 57.2736 109.668 56.6694H103.668C103.668 56.3404 103.748 55.9097 104.006 55.4821C104.26 55.0595 104.59 54.8031 104.843 54.6632C105.259 54.4335 105.496 54.4946 105.177 54.4946V60.4946ZM109.668 56.6694C109.668 56.1902 109.612 55.5937 109.382 54.9813L103.764 57.088C103.71 56.944 103.688 56.8306 103.678 56.7653C103.668 56.6996 103.668 56.6648 103.668 56.6694H109.668ZM106.149 53.0648C106.172 53.0616 106.174 53.0623 106.151 53.0636C106.129 53.065 106.091 53.0664 106.034 53.0664V59.0664C106.334 59.0664 106.665 59.0521 106.998 59.0045L106.149 53.0648ZM106.034 53.0664H105.685V59.0664H106.034V53.0664ZM105.685 53.0664C101.565 53.0664 98.619 52.2466 96.5803 50.8982L93.2703 55.9026C96.6059 58.1088 100.833 59.0664 105.685 59.0664V53.0664ZM96.5773 50.8962C94.3749 49.4432 93.355 47.5503 93.355 44.8945H87.355C87.355 49.5598 89.382 53.3374 93.2733 55.9045L96.5773 50.8962ZM93.355 44.8945C93.355 42.0936 94.3473 39.9901 96.3645 38.3169L92.534 33.6988C89.0922 36.5535 87.355 40.3745 87.355 44.8945H93.355ZM96.3586 38.3217C98.6853 36.4018 102.086 35.2627 106.922 35.2627V29.2627C101.179 29.2627 96.2646 30.6203 92.5398 33.6939L96.3586 38.3217ZM106.922 35.2627C109.314 35.2627 111.494 35.5155 113.476 36.0015L114.905 30.1743C112.401 29.56 109.736 29.2627 106.922 29.2627V35.2627ZM113.482 36.0031C115.544 36.504 117.207 37.1455 118.521 37.8889L121.476 32.6668C119.574 31.5905 117.365 30.772 114.899 30.1727L113.482 36.0031ZM117.277 36.5392C117.405 36.8156 117.602 37.5757 117.602 39.1182H123.602C123.602 37.2752 123.396 35.475 122.72 34.0164L117.277 36.5392ZM117.602 39.1182C117.602 41.1485 117.058 42.2484 116.386 42.9L120.564 47.2064C122.728 45.1074 123.602 42.2506 123.602 39.1182H117.602ZM119.919 42.4235C118.55 41.6719 116.965 41.1034 115.217 40.6783L113.799 46.5083C115.182 46.8448 116.242 47.2496 117.031 47.683L119.919 42.4235ZM115.263 40.69C113.537 40.2406 111.881 39.9902 110.318 39.9902V45.9902C111.253 45.9902 112.39 46.1419 113.752 46.4965L115.263 40.69ZM110.318 39.9902C109.668 39.9902 109.1 40.0011 108.633 40.0263C108.24 40.0476 107.686 40.0879 107.197 40.2185L108.743 46.0159C108.618 46.0491 108.562 46.0507 108.639 46.0419C108.697 46.0352 108.799 46.0261 108.957 46.0176C109.273 46.0005 109.721 45.9902 110.318 45.9902V39.9902Z" fill="black" mask="url(#path-25-outside-2_109_208)"/>
<path d="M74.1014 83.1854L63.3634 89.8736L63.5454 76.2135L74.1014 83.1854Z" fill="black" stroke="black" stroke-width="2"/>
<defs>
<filter id="filter0_d_109_208" x="195.067" y="74.3623" width="60.3475" height="50.4205" filterUnits="userSpaceOnUse" color-interpolation-filters="sRGB">
<feFlood flood-opacity="0" result="BackgroundImageFix"/>
<feColorMatrix in="SourceAlpha" type="matrix" values="0 0 0 0 0 0 0 0 0 0 0 0 0 0 0 0 0 0 127 0" result="hardAlpha"/>
<feOffset dy="3.05864"/>
<feGaussianBlur stdDeviation="1.52932"/>
<feComposite in2="hardAlpha" operator="out"/>
<feColorMatrix type="matrix" values="0 0 0 0 0 0 0 0 0 0 0 0 0 0 0 0 0 0 0.25 0"/>
<feBlend mode="normal" in2="BackgroundImageFix" result="effect1_dropShadow_109_208"/>
<feBlend mode="normal" in="SourceGraphic" in2="effect1_dropShadow_109_208" result="shape"/>
</filter>
<clipPath id="clip0_109_208">
<rect width="181.436" height="94.2969" fill="white" transform="matrix(0.962255 0.272148 -0.30533 0.952247 57.6587 0.952637)"/>
</clipPath>
</defs>
</svg>
